<!-- Generated by IcoMoon.io -->
<svg version="1.1" xmlns="http://www.w3.org/2000/svg" width="34" height="32" viewBox="0 0 34 32">
<title>arrow_down</title>
<path fill="#fff" d="M19.924 15.289c0.045 0.045 0.067 0.096 0.067 0.154s-0.022 0.109-0.067 0.154l-3.121 3.121c-0.045 0.045-0.096 0.067-0.154 0.067s-0.109-0.022-0.154-0.067l-3.121-3.121c-0.045-0.045-0.067-0.096-0.067-0.154s0.022-0.109 0.067-0.154l0.335-0.335c0.045-0.045 0.096-0.067 0.154-0.067s0.109 0.022 0.154 0.067l2.632 2.632 2.632-2.632c0.045-0.045 0.096-0.067 0.154-0.067s0.109 0.022 0.154 0.067l0.335 0.335z"></path>
<path fill="none" opacity="0.7" stroke="#fff" stroke-linejoin="miter" stroke-linecap="butt" stroke-miterlimit="4" stroke-width="0.8" d="M32.436 16c0 8.615-6.999 15.6-15.635 15.6s-15.635-6.985-15.635-15.6c0-8.615 6.999-15.6 15.635-15.6s15.635 6.985 15.635 15.6z"></path>
</svg>
