<!-- Generated by IcoMoon.io -->
<svg version="1.1" xmlns="http://www.w3.org/2000/svg" width="32" height="32" viewBox="0 0 32 32">
<title>arrow_right</title>
<path fill="#fff" opacity="0.5" d="M16 31.2c-8.395 0-15.2-6.805-15.2-15.2s6.805-15.2 15.2-15.2c8.395 0 15.2 6.805 15.2 15.2s-6.805 15.2-15.2 15.2zM16 32c8.837 0 16-7.163 16-16s-7.163-16-16-16c-8.837 0-16 7.163-16 16s7.163 16 16 16z"></path>
<path fill="#fff" d="M18.119 16.4c0-0.050-0.025-0.106-0.062-0.144l-2.912-2.912c-0.038-0.038-0.094-0.062-0.144-0.062s-0.106 0.025-0.144 0.062l-0.312 0.312c-0.038 0.038-0.062 0.094-0.062 0.144s0.025 0.106 0.062 0.144l2.456 2.456-2.456 2.456c-0.038 0.038-0.062 0.094-0.062 0.144 0 0.056 0.025 0.106 0.062 0.144l0.312 0.312c0.038 0.038 0.094 0.062 0.144 0.062s0.106-0.025 0.144-0.062l2.912-2.912c0.038-0.038 0.062-0.094 0.062-0.144z"></path>
</svg>
