<svg width="216" height="14" viewBox="0 0 216 14" fill="none" xmlns="http://www.w3.org/2000/svg">
<path d="M5.852 11.084C5.11467 11.084 4.43333 10.9627 3.808 10.72C3.18267 10.468 2.64133 10.118 2.184 9.67C1.72667 9.222 1.36733 8.69467 1.106 8.088C0.854 7.48133 0.728 6.81867 0.728 6.1C0.728 5.38133 0.854 4.71867 1.106 4.112C1.36733 3.50533 1.72667 2.978 2.184 2.53C2.65067 2.082 3.19667 1.73667 3.822 1.494C4.44733 1.242 5.12867 1.116 5.866 1.116C6.57533 1.116 7.24267 1.23733 7.868 1.48C8.49333 1.71333 9.02067 2.068 9.45 2.544L8.792 3.202C8.39067 2.79133 7.94733 2.49733 7.462 2.32C6.97667 2.13333 6.454 2.04 5.894 2.04C5.306 2.04 4.76 2.14267 4.256 2.348C3.752 2.544 3.31333 2.82867 2.94 3.202C2.56667 3.566 2.27267 3.99533 2.058 4.49C1.85267 4.97533 1.75 5.512 1.75 6.1C1.75 6.688 1.85267 7.22933 2.058 7.724C2.27267 8.20933 2.56667 8.63867 2.94 9.012C3.31333 9.376 3.752 9.66067 4.256 9.866C4.76 10.062 5.306 10.16 5.894 10.16C6.454 10.16 6.97667 10.0667 7.462 9.88C7.94733 9.69333 8.39067 9.39467 8.792 8.984L9.45 9.642C9.02067 10.118 8.49333 10.4773 7.868 10.72C7.24267 10.9627 6.57067 11.084 5.852 11.084ZM14.1164 11.07C13.407 11.07 12.7677 10.9113 12.1984 10.594C11.6384 10.2673 11.195 9.824 10.8684 9.264C10.5417 8.69467 10.3784 8.046 10.3784 7.318C10.3784 6.58067 10.5417 5.932 10.8684 5.372C11.195 4.812 11.6384 4.37333 12.1984 4.056C12.7584 3.73867 13.3977 3.58 14.1164 3.58C14.8444 3.58 15.4884 3.73867 16.0484 4.056C16.6177 4.37333 17.061 4.812 17.3784 5.372C17.705 5.932 17.8684 6.58067 17.8684 7.318C17.8684 8.046 17.705 8.69467 17.3784 9.264C17.061 9.824 16.6177 10.2673 16.0484 10.594C15.479 10.9113 14.835 11.07 14.1164 11.07ZM14.1164 10.188C14.6484 10.188 15.1197 10.0713 15.5304 9.838C15.941 9.59533 16.263 9.25933 16.4964 8.83C16.739 8.39133 16.8604 7.88733 16.8604 7.318C16.8604 6.73933 16.739 6.23533 16.4964 5.806C16.263 5.37667 15.941 5.04533 15.5304 4.812C15.1197 4.56933 14.653 4.448 14.1304 4.448C13.6077 4.448 13.141 4.56933 12.7304 4.812C12.3197 5.04533 11.993 5.37667 11.7504 5.806C11.5077 6.23533 11.3864 6.73933 11.3864 7.318C11.3864 7.88733 11.5077 8.39133 11.7504 8.83C11.993 9.25933 12.3197 9.59533 12.7304 9.838C13.141 10.0713 13.603 10.188 14.1164 10.188ZM23.6917 11.07C23.0571 11.07 22.4831 10.9253 21.9697 10.636C21.4564 10.3373 21.0457 9.91267 20.7377 9.362C20.4391 8.802 20.2897 8.12067 20.2897 7.318C20.2897 6.51533 20.4391 5.83867 20.7377 5.288C21.0364 4.728 21.4424 4.30333 21.9557 4.014C22.4691 3.72467 23.0477 3.58 23.6917 3.58C24.3917 3.58 25.0171 3.73867 25.5677 4.056C26.1277 4.364 26.5664 4.80267 26.8837 5.372C27.2011 5.932 27.3597 6.58067 27.3597 7.318C27.3597 8.06467 27.2011 8.718 26.8837 9.278C26.5664 9.838 26.1277 10.2767 25.5677 10.594C25.0171 10.9113 24.3917 11.07 23.6917 11.07ZM19.8977 13.716V3.65H20.8497V5.862L20.7517 7.332L20.8917 8.816V13.716H19.8977ZM23.6217 10.188C24.1444 10.188 24.6111 10.0713 25.0217 9.838C25.4324 9.59533 25.7591 9.25933 26.0017 8.83C26.2444 8.39133 26.3657 7.88733 26.3657 7.318C26.3657 6.74867 26.2444 6.24933 26.0017 5.82C25.7591 5.39067 25.4324 5.05467 25.0217 4.812C24.6111 4.56933 24.1444 4.448 23.6217 4.448C23.0991 4.448 22.6277 4.56933 22.2077 4.812C21.7971 5.05467 21.4704 5.39067 21.2277 5.82C20.9944 6.24933 20.8777 6.74867 20.8777 7.318C20.8777 7.88733 20.9944 8.39133 21.2277 8.83C21.4704 9.25933 21.7971 9.59533 22.2077 9.838C22.6277 10.0713 23.0991 10.188 23.6217 10.188ZM29.2369 13.786C28.8916 13.786 28.5603 13.73 28.2429 13.618C27.9349 13.506 27.6689 13.338 27.4449 13.114L27.9069 12.372C28.0936 12.5493 28.2943 12.6847 28.5089 12.778C28.7329 12.8807 28.9803 12.932 29.2509 12.932C29.5776 12.932 29.8576 12.8387 30.0909 12.652C30.3336 12.4747 30.5623 12.1573 30.7769 11.7L31.2529 10.622L31.3649 10.468L34.3889 3.65H35.3689L31.6869 11.882C31.4816 12.358 31.2529 12.736 31.0009 13.016C30.7583 13.296 30.4923 13.492 30.2029 13.604C29.9136 13.7253 29.5916 13.786 29.2369 13.786ZM31.1969 11.21L27.8089 3.65H28.8449L31.8409 10.398L31.1969 11.21ZM36.7688 11V3.65H37.7208V5.652L37.6228 5.302C37.8281 4.742 38.1735 4.31733 38.6588 4.028C39.1441 3.72933 39.7461 3.58 40.4648 3.58V4.546C40.4275 4.546 40.3901 4.546 40.3528 4.546C40.3155 4.53667 40.2781 4.532 40.2408 4.532C39.4661 4.532 38.8595 4.77 38.4208 5.246C37.9821 5.71267 37.7628 6.38 37.7628 7.248V11H36.7688ZM42.2786 11V3.65H43.2726V11H42.2786ZM42.7826 2.026C42.5772 2.026 42.4046 1.956 42.2646 1.816C42.1246 1.676 42.0546 1.508 42.0546 1.312C42.0546 1.116 42.1246 0.952666 42.2646 0.821999C42.4046 0.681999 42.5772 0.611999 42.7826 0.611999C42.9879 0.611999 43.1606 0.677333 43.3006 0.807999C43.4406 0.938666 43.5106 1.102 43.5106 1.298C43.5106 1.50333 43.4406 1.676 43.3006 1.816C43.1699 1.956 42.9972 2.026 42.7826 2.026ZM49.1743 13.786C48.5023 13.786 47.8583 13.688 47.2423 13.492C46.6263 13.296 46.127 13.016 45.7443 12.652L46.2483 11.896C46.5937 12.204 47.0183 12.4467 47.5223 12.624C48.0357 12.8107 48.577 12.904 49.1463 12.904C50.0797 12.904 50.7657 12.6847 51.2043 12.246C51.643 11.8167 51.8623 11.1447 51.8623 10.23V8.396L52.0023 7.136L51.9043 5.876V3.65H52.8563V10.104C52.8563 11.3733 52.5437 12.302 51.9183 12.89C51.3023 13.4873 50.3877 13.786 49.1743 13.786ZM48.9923 10.72C48.2923 10.72 47.6623 10.5707 47.1023 10.272C46.5423 9.964 46.099 9.53933 45.7723 8.998C45.455 8.45667 45.2963 7.836 45.2963 7.136C45.2963 6.436 45.455 5.82 45.7723 5.288C46.099 4.74667 46.5423 4.32667 47.1023 4.028C47.6623 3.72933 48.2923 3.58 48.9923 3.58C49.6457 3.58 50.2337 3.71533 50.7563 3.986C51.279 4.25667 51.6943 4.658 52.0023 5.19C52.3103 5.722 52.4643 6.37067 52.4643 7.136C52.4643 7.90133 52.3103 8.55 52.0023 9.082C51.6943 9.614 51.279 10.02 50.7563 10.3C50.2337 10.58 49.6457 10.72 48.9923 10.72ZM49.0903 9.838C49.6317 9.838 50.1123 9.726 50.5323 9.502C50.9523 9.26867 51.2837 8.95133 51.5263 8.55C51.769 8.13933 51.8903 7.668 51.8903 7.136C51.8903 6.604 51.769 6.13733 51.5263 5.736C51.2837 5.33467 50.9523 5.022 50.5323 4.798C50.1123 4.56467 49.6317 4.448 49.0903 4.448C48.5583 4.448 48.0777 4.56467 47.6483 4.798C47.2283 5.022 46.897 5.33467 46.6543 5.736C46.421 6.13733 46.3043 6.604 46.3043 7.136C46.3043 7.668 46.421 8.13933 46.6543 8.55C46.897 8.95133 47.2283 9.26867 47.6483 9.502C48.0777 9.726 48.5583 9.838 49.0903 9.838ZM59.3743 3.58C59.9717 3.58 60.4943 3.69667 60.9423 3.93C61.3997 4.154 61.7543 4.49933 62.0063 4.966C62.2677 5.43267 62.3983 6.02067 62.3983 6.73V11H61.4043V6.828C61.4043 6.05333 61.2083 5.47 60.8163 5.078C60.4337 4.67667 59.8923 4.476 59.1923 4.476C58.6697 4.476 58.2123 4.58333 57.8203 4.798C57.4377 5.00333 57.139 5.30667 56.9243 5.708C56.719 6.1 56.6163 6.576 56.6163 7.136V11H55.6223V0.611999H56.6163V5.666L56.4203 5.288C56.6537 4.756 57.027 4.34067 57.5403 4.042C58.0537 3.734 58.665 3.58 59.3743 3.58ZM67.4073 11.07C66.7166 11.07 66.1846 10.8833 65.8113 10.51C65.4379 10.1367 65.2513 9.60933 65.2513 8.928V2.026H66.2453V8.872C66.2453 9.30133 66.3526 9.63267 66.5673 9.866C66.7913 10.0993 67.1086 10.216 67.5193 10.216C67.9579 10.216 68.3219 10.09 68.6113 9.838L68.9613 10.552C68.7653 10.7293 68.5273 10.86 68.2473 10.944C67.9766 11.028 67.6966 11.07 67.4073 11.07ZM63.9353 4.476V3.65H68.4853V4.476H63.9353ZM72.7448 11.07C72.1381 11.07 71.5641 10.986 71.0228 10.818C70.4814 10.6407 70.0568 10.4213 69.7488 10.16L70.1968 9.376C70.4954 9.6 70.8781 9.796 71.3448 9.964C71.8114 10.1227 72.3014 10.202 72.8148 10.202C73.5148 10.202 74.0188 10.0947 74.3268 9.88C74.6348 9.656 74.7888 9.362 74.7888 8.998C74.7888 8.72733 74.7001 8.51733 74.5228 8.368C74.3548 8.20933 74.1308 8.09267 73.8508 8.018C73.5708 7.934 73.2581 7.864 72.9128 7.808C72.5674 7.752 72.2221 7.68667 71.8768 7.612C71.5408 7.53733 71.2328 7.43 70.9528 7.29C70.6728 7.14067 70.4441 6.94 70.2668 6.688C70.0988 6.436 70.0148 6.1 70.0148 5.68C70.0148 5.27867 70.1268 4.91933 70.3508 4.602C70.5748 4.28467 70.9014 4.03733 71.3308 3.86C71.7694 3.67333 72.3014 3.58 72.9268 3.58C73.4028 3.58 73.8788 3.64533 74.3548 3.776C74.8308 3.89733 75.2228 4.06067 75.5308 4.266L75.0968 5.064C74.7701 4.84 74.4201 4.68133 74.0468 4.588C73.6734 4.48533 73.3001 4.434 72.9268 4.434C72.2641 4.434 71.7741 4.55067 71.4568 4.784C71.1488 5.008 70.9948 5.29733 70.9948 5.652C70.9948 5.932 71.0788 6.15133 71.2468 6.31C71.4241 6.46867 71.6528 6.59467 71.9328 6.688C72.2221 6.772 72.5348 6.842 72.8708 6.898C73.2161 6.954 73.5568 7.024 73.8928 7.108C74.2381 7.18267 74.5508 7.29 74.8308 7.43C75.1201 7.56067 75.3488 7.752 75.5168 8.004C75.6941 8.24667 75.7828 8.56867 75.7828 8.97C75.7828 9.39933 75.6614 9.77267 75.4188 10.09C75.1854 10.398 74.8401 10.6407 74.3828 10.818C73.9348 10.986 73.3888 11.07 72.7448 11.07ZM85.5408 11.042C84.8408 11.042 84.1921 10.916 83.5948 10.664C82.9974 10.412 82.4748 10.062 82.0268 9.614C81.5788 9.15667 81.2288 8.62933 80.9768 8.032C80.7341 7.43467 80.6128 6.79067 80.6128 6.1C80.6128 5.40933 80.7388 4.76533 80.9908 4.168C81.2428 3.57067 81.5928 3.048 82.0408 2.6C82.4888 2.14267 83.0114 1.788 83.6088 1.536C84.2154 1.284 84.8688 1.158 85.5688 1.158C86.2688 1.158 86.9174 1.284 87.5148 1.536C88.1214 1.77867 88.6441 2.124 89.0828 2.572C89.5308 3.02 89.8761 3.54267 90.1188 4.14C90.3708 4.728 90.4968 5.372 90.4968 6.072C90.4968 6.772 90.3708 7.42533 90.1188 8.032C89.8668 8.62933 89.5121 9.15667 89.0548 9.614C88.6068 10.062 88.0841 10.412 87.4868 10.664C86.8894 10.916 86.2408 11.042 85.5408 11.042ZM85.5268 10.524C86.1614 10.524 86.7448 10.412 87.2768 10.188C87.8088 9.95467 88.2754 9.63733 88.6768 9.236C89.0874 8.83467 89.4048 8.36333 89.6288 7.822C89.8528 7.27133 89.9648 6.688 89.9648 6.072C89.9648 5.44667 89.8528 4.868 89.6288 4.336C89.4141 3.804 89.1061 3.33733 88.7048 2.936C88.3128 2.53467 87.8461 2.22667 87.3048 2.012C86.7728 1.788 86.1941 1.676 85.5688 1.676C84.9341 1.676 84.3461 1.788 83.8048 2.012C83.2634 2.236 82.7921 2.55333 82.3908 2.964C81.9988 3.36533 81.6908 3.832 81.4668 4.364C81.2428 4.896 81.1308 5.47467 81.1308 6.1C81.1308 6.716 81.2428 7.29467 81.4668 7.836C81.6908 8.368 81.9988 8.83933 82.3908 9.25C82.7921 9.65133 83.2588 9.964 83.7908 10.188C84.3321 10.412 84.9108 10.524 85.5268 10.524ZM85.6668 9.012C85.1068 9.012 84.6074 8.89067 84.1688 8.648C83.7301 8.396 83.3848 8.05067 83.1328 7.612C82.8808 7.17333 82.7548 6.66933 82.7548 6.1C82.7548 5.53067 82.8808 5.02667 83.1328 4.588C83.3848 4.14933 83.7301 3.80867 84.1688 3.566C84.6074 3.314 85.1068 3.188 85.6668 3.188C86.1428 3.188 86.5721 3.286 86.9548 3.482C87.3468 3.66867 87.6594 3.93 87.8928 4.266L87.2908 4.714C87.0948 4.44333 86.8568 4.24267 86.5768 4.112C86.2968 3.98133 85.9888 3.916 85.6528 3.916C85.2514 3.916 84.8921 4.00933 84.5748 4.196C84.2668 4.37333 84.0194 4.62533 83.8328 4.952C83.6461 5.27867 83.5528 5.66133 83.5528 6.1C83.5528 6.53867 83.6461 6.92133 83.8328 7.248C84.0194 7.57467 84.2668 7.83133 84.5748 8.018C84.8921 8.19533 85.2514 8.284 85.6528 8.284C85.9888 8.284 86.2968 8.21867 86.5768 8.088C86.8568 7.95733 87.0948 7.75667 87.2908 7.486L87.8928 7.92C87.6594 8.26533 87.3468 8.536 86.9548 8.732C86.5721 8.91867 86.1428 9.012 85.6668 9.012ZM95.4151 11V10.286L99.4891 6.296C99.8625 5.932 100.142 5.61467 100.329 5.344C100.516 5.064 100.642 4.80267 100.707 4.56C100.772 4.31733 100.805 4.08867 100.805 3.874C100.805 3.30467 100.609 2.85667 100.217 2.53C99.8345 2.20333 99.2651 2.04 98.5091 2.04C97.9305 2.04 97.4171 2.12867 96.9691 2.306C96.5305 2.48333 96.1525 2.75867 95.8351 3.132L95.1211 2.516C95.5038 2.068 95.9938 1.72267 96.5911 1.48C97.1885 1.23733 97.8558 1.116 98.5931 1.116C99.2558 1.116 99.8298 1.22333 100.315 1.438C100.8 1.64333 101.174 1.94667 101.435 2.348C101.706 2.74933 101.841 3.22067 101.841 3.762C101.841 4.07933 101.794 4.392 101.701 4.7C101.617 5.008 101.458 5.33467 101.225 5.68C101.001 6.016 100.67 6.39867 100.231 6.828L96.4931 10.496L96.2131 10.104H102.289V11H95.4151ZM107.433 11.084C106.677 11.084 106.005 10.888 105.417 10.496C104.829 10.0947 104.367 9.52533 104.031 8.788C103.695 8.04133 103.527 7.14533 103.527 6.1C103.527 5.05467 103.695 4.16333 104.031 3.426C104.367 2.67933 104.829 2.11 105.417 1.718C106.005 1.31667 106.677 1.116 107.433 1.116C108.189 1.116 108.861 1.31667 109.449 1.718C110.037 2.11 110.499 2.67933 110.835 3.426C111.18 4.16333 111.353 5.05467 111.353 6.1C111.353 7.14533 111.18 8.04133 110.835 8.788C110.499 9.52533 110.037 10.0947 109.449 10.496C108.861 10.888 108.189 11.084 107.433 11.084ZM107.433 10.16C108.011 10.16 108.515 10.006 108.945 9.698C109.374 9.38067 109.71 8.92333 109.953 8.326C110.195 7.71933 110.317 6.97733 110.317 6.1C110.317 5.22267 110.195 4.48533 109.953 3.888C109.71 3.28133 109.374 2.824 108.945 2.516C108.515 2.19867 108.011 2.04 107.433 2.04C106.873 2.04 106.373 2.19867 105.935 2.516C105.496 2.824 105.155 3.28133 104.913 3.888C104.67 4.48533 104.549 5.22267 104.549 6.1C104.549 6.97733 104.67 7.71933 104.913 8.326C105.155 8.92333 105.496 9.38067 105.935 9.698C106.373 10.006 106.873 10.16 107.433 10.16ZM112.614 11V10.286L116.688 6.296C117.062 5.932 117.342 5.61467 117.528 5.344C117.715 5.064 117.841 4.80267 117.906 4.56C117.972 4.31733 118.004 4.08867 118.004 3.874C118.004 3.30467 117.808 2.85667 117.416 2.53C117.034 2.20333 116.464 2.04 115.708 2.04C115.13 2.04 114.616 2.12867 114.168 2.306C113.73 2.48333 113.352 2.75867 113.034 3.132L112.32 2.516C112.703 2.068 113.193 1.72267 113.79 1.48C114.388 1.23733 115.055 1.116 115.792 1.116C116.455 1.116 117.029 1.22333 117.514 1.438C118 1.64333 118.373 1.94667 118.634 2.348C118.905 2.74933 119.04 3.22067 119.04 3.762C119.04 4.07933 118.994 4.392 118.9 4.7C118.816 5.008 118.658 5.33467 118.424 5.68C118.2 6.016 117.869 6.39867 117.43 6.828L113.692 10.496L113.412 10.104H119.488V11H112.614ZM124.632 11.084C123.876 11.084 123.204 10.888 122.616 10.496C122.028 10.0947 121.566 9.52533 121.23 8.788C120.894 8.04133 120.726 7.14533 120.726 6.1C120.726 5.05467 120.894 4.16333 121.23 3.426C121.566 2.67933 122.028 2.11 122.616 1.718C123.204 1.31667 123.876 1.116 124.632 1.116C125.388 1.116 126.06 1.31667 126.648 1.718C127.236 2.11 127.698 2.67933 128.034 3.426C128.379 4.16333 128.552 5.05467 128.552 6.1C128.552 7.14533 128.379 8.04133 128.034 8.788C127.698 9.52533 127.236 10.0947 126.648 10.496C126.06 10.888 125.388 11.084 124.632 11.084ZM124.632 10.16C125.211 10.16 125.715 10.006 126.144 9.698C126.573 9.38067 126.909 8.92333 127.152 8.326C127.395 7.71933 127.516 6.97733 127.516 6.1C127.516 5.22267 127.395 4.48533 127.152 3.888C126.909 3.28133 126.573 2.824 126.144 2.516C125.715 2.19867 125.211 2.04 124.632 2.04C124.072 2.04 123.573 2.19867 123.134 2.516C122.695 2.824 122.355 3.28133 122.112 3.888C121.869 4.48533 121.748 5.22267 121.748 6.1C121.748 6.97733 121.869 7.71933 122.112 8.326C122.355 8.92333 122.695 9.38067 123.134 9.698C123.573 10.006 124.072 10.16 124.632 10.16ZM134.528 11V1.2H135.382L139.862 8.844H139.414L143.852 1.2H144.706V11H143.712V2.754H143.95L139.862 9.754H139.372L135.256 2.754H135.522V11H134.528ZM150.685 11.07C149.975 11.07 149.336 10.9113 148.767 10.594C148.207 10.2673 147.763 9.824 147.437 9.264C147.11 8.69467 146.947 8.046 146.947 7.318C146.947 6.58067 147.11 5.932 147.437 5.372C147.763 4.812 148.207 4.37333 148.767 4.056C149.327 3.73867 149.966 3.58 150.685 3.58C151.413 3.58 152.057 3.73867 152.617 4.056C153.186 4.37333 153.629 4.812 153.947 5.372C154.273 5.932 154.437 6.58067 154.437 7.318C154.437 8.046 154.273 8.69467 153.947 9.264C153.629 9.824 153.186 10.2673 152.617 10.594C152.047 10.9113 151.403 11.07 150.685 11.07ZM150.685 10.188C151.217 10.188 151.688 10.0713 152.099 9.838C152.509 9.59533 152.831 9.25933 153.065 8.83C153.307 8.39133 153.429 7.88733 153.429 7.318C153.429 6.73933 153.307 6.23533 153.065 5.806C152.831 5.37667 152.509 5.04533 152.099 4.812C151.688 4.56933 151.221 4.448 150.699 4.448C150.176 4.448 149.709 4.56933 149.299 4.812C148.888 5.04533 148.561 5.37667 148.319 5.806C148.076 6.23533 147.955 6.73933 147.955 7.318C147.955 7.88733 148.076 8.39133 148.319 8.83C148.561 9.25933 148.888 9.59533 149.299 9.838C149.709 10.0713 150.171 10.188 150.685 10.188ZM160.218 3.58C160.815 3.58 161.338 3.69667 161.786 3.93C162.243 4.154 162.598 4.49933 162.85 4.966C163.111 5.43267 163.242 6.02067 163.242 6.73V11H162.248V6.828C162.248 6.05333 162.052 5.47 161.66 5.078C161.277 4.67667 160.736 4.476 160.036 4.476C159.513 4.476 159.056 4.58333 158.664 4.798C158.281 5.00333 157.983 5.30667 157.768 5.708C157.563 6.1 157.46 6.576 157.46 7.136V11H156.466V3.65H157.418V5.666L157.264 5.288C157.497 4.756 157.871 4.34067 158.384 4.042C158.897 3.734 159.509 3.58 160.218 3.58ZM168.251 11.07C167.56 11.07 167.028 10.8833 166.655 10.51C166.282 10.1367 166.095 9.60933 166.095 8.928V2.026H167.089V8.872C167.089 9.30133 167.196 9.63267 167.411 9.866C167.635 10.0993 167.952 10.216 168.363 10.216C168.802 10.216 169.166 10.09 169.455 9.838L169.805 10.552C169.609 10.7293 169.371 10.86 169.091 10.944C168.82 11.028 168.54 11.07 168.251 11.07ZM164.779 4.476V3.65H169.329V4.476H164.779ZM171.615 11V3.65H172.609V11H171.615ZM172.119 2.026C171.913 2.026 171.741 1.956 171.601 1.816C171.461 1.676 171.391 1.508 171.391 1.312C171.391 1.116 171.461 0.952666 171.601 0.821999C171.741 0.681999 171.913 0.611999 172.119 0.611999C172.324 0.611999 172.497 0.677333 172.637 0.807999C172.777 0.938666 172.847 1.102 172.847 1.298C172.847 1.50333 172.777 1.676 172.637 1.816C172.506 1.956 172.333 2.026 172.119 2.026ZM178.426 11.07C177.698 11.07 177.045 10.9113 176.466 10.594C175.897 10.2673 175.449 9.824 175.122 9.264C174.796 8.69467 174.632 8.046 174.632 7.318C174.632 6.58067 174.796 5.932 175.122 5.372C175.449 4.812 175.897 4.37333 176.466 4.056C177.045 3.73867 177.698 3.58 178.426 3.58C179.052 3.58 179.616 3.70133 180.12 3.944C180.624 4.18667 181.021 4.55067 181.31 5.036L180.568 5.54C180.316 5.16667 180.004 4.89133 179.63 4.714C179.257 4.53667 178.851 4.448 178.412 4.448C177.89 4.448 177.418 4.56933 176.998 4.812C176.578 5.04533 176.247 5.37667 176.004 5.806C175.762 6.23533 175.64 6.73933 175.64 7.318C175.64 7.89667 175.762 8.40067 176.004 8.83C176.247 9.25933 176.578 9.59533 176.998 9.838C177.418 10.0713 177.89 10.188 178.412 10.188C178.851 10.188 179.257 10.0993 179.63 9.922C180.004 9.74467 180.316 9.474 180.568 9.11L181.31 9.614C181.021 10.09 180.624 10.454 180.12 10.706C179.616 10.9487 179.052 11.07 178.426 11.07ZM186.906 3.58C187.503 3.58 188.026 3.69667 188.474 3.93C188.931 4.154 189.286 4.49933 189.538 4.966C189.799 5.43267 189.93 6.02067 189.93 6.73V11H188.936V6.828C188.936 6.05333 188.74 5.47 188.348 5.078C187.965 4.67667 187.424 4.476 186.724 4.476C186.201 4.476 185.744 4.58333 185.352 4.798C184.969 5.00333 184.67 5.30667 184.456 5.708C184.25 6.1 184.148 6.576 184.148 7.136V11H183.154V0.611999H184.148V5.666L183.952 5.288C184.185 4.756 184.558 4.34067 185.072 4.042C185.585 3.734 186.196 3.58 186.906 3.58ZM195.737 11.07C194.971 11.07 194.299 10.9113 193.721 10.594C193.142 10.2673 192.689 9.824 192.363 9.264C192.036 8.69467 191.873 8.046 191.873 7.318C191.873 6.59 192.027 5.946 192.335 5.386C192.652 4.826 193.081 4.38733 193.623 4.07C194.173 3.74333 194.789 3.58 195.471 3.58C196.161 3.58 196.773 3.73867 197.305 4.056C197.846 4.364 198.271 4.80267 198.579 5.372C198.887 5.932 199.041 6.58067 199.041 7.318C199.041 7.36467 199.036 7.416 199.027 7.472C199.027 7.51867 199.027 7.57 199.027 7.626H192.629V6.884H198.495L198.103 7.178C198.103 6.646 197.986 6.17467 197.753 5.764C197.529 5.344 197.221 5.01733 196.829 4.784C196.437 4.55067 195.984 4.434 195.471 4.434C194.967 4.434 194.514 4.55067 194.113 4.784C193.711 5.01733 193.399 5.344 193.175 5.764C192.951 6.184 192.839 6.66467 192.839 7.206V7.36C192.839 7.92 192.96 8.41467 193.203 8.844C193.455 9.264 193.8 9.59533 194.239 9.838C194.687 10.0713 195.195 10.188 195.765 10.188C196.213 10.188 196.628 10.1087 197.011 9.95C197.403 9.79133 197.739 9.54867 198.019 9.222L198.579 9.866C198.252 10.258 197.841 10.5567 197.347 10.762C196.861 10.9673 196.325 11.07 195.737 11.07ZM201.064 11V0.611999H202.058V11H201.064ZM204.824 11V0.611999H205.818V11H204.824ZM211.579 11.07C210.87 11.07 210.231 10.9113 209.661 10.594C209.101 10.2673 208.658 9.824 208.331 9.264C208.005 8.69467 207.841 8.046 207.841 7.318C207.841 6.58067 208.005 5.932 208.331 5.372C208.658 4.812 209.101 4.37333 209.661 4.056C210.221 3.73867 210.861 3.58 211.579 3.58C212.307 3.58 212.951 3.73867 213.511 4.056C214.081 4.37333 214.524 4.812 214.841 5.372C215.168 5.932 215.331 6.58067 215.331 7.318C215.331 8.046 215.168 8.69467 214.841 9.264C214.524 9.824 214.081 10.2673 213.511 10.594C212.942 10.9113 212.298 11.07 211.579 11.07ZM211.579 10.188C212.111 10.188 212.583 10.0713 212.993 9.838C213.404 9.59533 213.726 9.25933 213.959 8.83C214.202 8.39133 214.323 7.88733 214.323 7.318C214.323 6.73933 214.202 6.23533 213.959 5.806C213.726 5.37667 213.404 5.04533 212.993 4.812C212.583 4.56933 212.116 4.448 211.593 4.448C211.071 4.448 210.604 4.56933 210.193 4.812C209.783 5.04533 209.456 5.37667 209.213 5.806C208.971 6.23533 208.849 6.73933 208.849 7.318C208.849 7.88733 208.971 8.39133 209.213 8.83C209.456 9.25933 209.783 9.59533 210.193 9.838C210.604 10.0713 211.066 10.188 211.579 10.188Z" fill="white"/>
</svg>
