<!-- Generated by IcoMoon.io -->
<svg version="1.1" xmlns="http://www.w3.org/2000/svg" width="494" height="32" viewBox="0 0 494 32">
<title>copyrights</title>
<path fill="#fff" d="M13.376 25.334c-2.219 0-4.224-0.491-6.016-1.472-1.771-0.981-3.168-2.336-4.192-4.064-1.003-1.749-1.504-3.701-1.504-5.856s0.501-4.096 1.504-5.824c1.024-1.749 2.432-3.115 4.224-4.096s3.797-1.472 6.016-1.472c1.664 0 3.2 0.277 4.608 0.832s2.603 1.365 3.584 2.432l-1.504 1.504c-1.749-1.771-3.957-2.656-6.624-2.656-1.771 0-3.381 0.405-4.832 1.216s-2.592 1.92-3.424 3.328c-0.811 1.408-1.216 2.987-1.216 4.736s0.405 3.328 1.216 4.736c0.832 1.408 1.973 2.517 3.424 3.328s3.061 1.216 4.832 1.216c2.688 0 4.896-0.896 6.624-2.688l1.504 1.504c-0.981 1.067-2.187 1.888-3.616 2.464-1.408 0.555-2.944 0.832-4.608 0.832z"></path>
<path fill="#fff" d="M32.298 25.302c-1.622 0-3.083-0.363-4.384-1.088-1.302-0.747-2.325-1.771-3.072-3.072s-1.12-2.773-1.12-4.416 0.373-3.115 1.12-4.416c0.747-1.301 1.77-2.315 3.072-3.040s2.762-1.088 4.384-1.088c1.621 0 3.083 0.363 4.384 1.088s2.315 1.739 3.040 3.040c0.746 1.301 1.12 2.773 1.12 4.416s-0.373 3.115-1.12 4.416c-0.725 1.301-1.739 2.325-3.040 3.072-1.301 0.725-2.763 1.088-4.384 1.088zM32.298 23.286c1.194 0 2.261-0.267 3.2-0.8 0.96-0.555 1.706-1.333 2.24-2.336s0.8-2.144 0.8-3.424-0.267-2.421-0.8-3.424c-0.533-1.003-1.28-1.771-2.24-2.304-0.939-0.555-2.005-0.832-3.2-0.832s-2.272 0.277-3.232 0.832c-0.939 0.533-1.686 1.301-2.24 2.304-0.534 1.003-0.8 2.144-0.8 3.424s0.267 2.421 0.8 3.424c0.555 1.003 1.301 1.781 2.24 2.336 0.96 0.533 2.037 0.8 3.232 0.8z"></path>
<path fill="#fff" d="M54.152 8.182c1.579 0 3.008 0.363 4.288 1.088 1.28 0.704 2.283 1.707 3.008 3.008s1.088 2.784 1.088 4.448c0 1.685-0.363 3.179-1.088 4.48s-1.728 2.315-3.008 3.040c-1.259 0.704-2.688 1.056-4.288 1.056-1.365 0-2.603-0.277-3.712-0.832-1.088-0.576-1.984-1.408-2.688-2.496v9.376h-2.272v-23.040h2.176v3.328c0.683-1.109 1.579-1.963 2.688-2.56 1.131-0.597 2.4-0.896 3.808-0.896zM53.992 23.286c1.173 0 2.24-0.267 3.2-0.8 0.96-0.555 1.707-1.333 2.24-2.336 0.555-1.003 0.832-2.144 0.832-3.424s-0.277-2.411-0.832-3.392c-0.533-1.003-1.28-1.781-2.24-2.336s-2.027-0.832-3.2-0.832c-1.195 0-2.272 0.277-3.232 0.832-0.939 0.555-1.685 1.333-2.24 2.336-0.533 0.981-0.8 2.112-0.8 3.392s0.267 2.421 0.8 3.424c0.555 1.003 1.301 1.781 2.24 2.336 0.96 0.533 2.037 0.8 3.232 0.8z"></path>
<path fill="#fff" d="M80.843 8.31l-8.416 18.848c-0.683 1.579-1.472 2.699-2.368 3.36s-1.973 0.992-3.232 0.992c-0.811 0-1.568-0.128-2.272-0.384s-1.312-0.64-1.824-1.152l1.056-1.696c0.853 0.853 1.877 1.28 3.072 1.28 0.768 0 1.419-0.213 1.952-0.64 0.555-0.427 1.067-1.152 1.536-2.176l0.736-1.632-7.52-16.8h2.368l6.336 14.304 6.336-14.304h2.24z"></path>
<path fill="#fff" d="M86.219 11.606c0.533-1.131 1.323-1.984 2.368-2.56 1.067-0.576 2.379-0.864 3.936-0.864v2.208l-0.544-0.032c-1.771 0-3.157 0.544-4.16 1.632s-1.504 2.613-1.504 4.576v8.576h-2.272v-16.832h2.176v3.296z"></path>
<path fill="#fff" d="M96.637 8.31h2.272v16.832h-2.272v-16.832zM97.789 4.63c-0.469 0-0.864-0.16-1.184-0.48s-0.48-0.704-0.48-1.152c0-0.427 0.16-0.8 0.48-1.12s0.715-0.48 1.184-0.48c0.469 0 0.864 0.16 1.184 0.48 0.32 0.299 0.48 0.661 0.48 1.088 0 0.469-0.16 0.864-0.48 1.184s-0.715 0.48-1.184 0.48z"></path>
<path fill="#fff" d="M120.814 8.31v14.784c0 2.859-0.704 4.971-2.112 6.336-1.386 1.387-3.488 2.080-6.304 2.080-1.557 0-3.040-0.235-4.448-0.704-1.386-0.448-2.517-1.077-3.392-1.888l1.152-1.728c0.811 0.726 1.792 1.291 2.944 1.696 1.174 0.405 2.4 0.608 3.68 0.608 2.133 0 3.701-0.501 4.704-1.504 1.003-0.981 1.504-2.517 1.504-4.608v-2.144c-0.704 1.067-1.632 1.877-2.784 2.432-1.13 0.555-2.389 0.832-3.776 0.832-1.579 0-3.019-0.341-4.32-1.024-1.28-0.704-2.293-1.675-3.040-2.912-0.725-1.259-1.088-2.677-1.088-4.256s0.363-2.987 1.088-4.224c0.747-1.237 1.76-2.197 3.040-2.88s2.72-1.024 4.32-1.024c1.43 0 2.72 0.288 3.872 0.864s2.080 1.408 2.784 2.496v-3.232h2.176zM112.206 22.486c1.216 0 2.315-0.256 3.296-0.768 0.981-0.533 1.739-1.269 2.272-2.208 0.555-0.939 0.832-2.005 0.832-3.2s-0.277-2.251-0.832-3.168c-0.533-0.939-1.29-1.664-2.272-2.176-0.96-0.533-2.058-0.8-3.296-0.8-1.216 0-2.314 0.256-3.296 0.768-0.96 0.512-1.717 1.237-2.272 2.176-0.533 0.939-0.8 2.005-0.8 3.2s0.267 2.261 0.8 3.2c0.555 0.939 1.312 1.675 2.272 2.208 0.981 0.512 2.080 0.768 3.296 0.768z"></path>
<path fill="#fff" d="M135.744 8.182c2.112 0 3.787 0.619 5.024 1.856 1.259 1.216 1.888 2.997 1.888 5.344v9.76h-2.272v-9.536c0-1.749-0.437-3.083-1.312-4s-2.123-1.376-3.744-1.376c-1.813 0-3.253 0.544-4.32 1.632-1.045 1.067-1.568 2.549-1.568 4.448v8.832h-2.272v-23.744h2.272v9.856c0.619-0.981 1.472-1.739 2.56-2.272s2.336-0.8 3.744-0.8z"></path>
<path fill="#fff" d="M157.688 24.118c-0.427 0.384-0.96 0.683-1.6 0.896-0.619 0.192-1.269 0.288-1.952 0.288-1.579 0-2.795-0.427-3.648-1.28s-1.28-2.059-1.28-3.616v-10.176h-3.008v-1.92h3.008v-3.68h2.272v3.68h5.12v1.92h-5.12v10.048c0 1.003 0.245 1.771 0.736 2.304 0.512 0.512 1.237 0.768 2.176 0.768 0.469 0 0.917-0.075 1.344-0.224 0.448-0.149 0.832-0.363 1.152-0.64l0.8 1.632z"></path>
<path fill="#fff" d="M166.336 25.302c-1.365 0-2.677-0.192-3.936-0.576-1.237-0.405-2.208-0.907-2.912-1.504l1.024-1.792c0.704 0.555 1.589 1.013 2.656 1.376 1.067 0.341 2.176 0.512 3.328 0.512 1.536 0 2.667-0.235 3.392-0.704 0.747-0.491 1.12-1.173 1.12-2.048 0-0.619-0.203-1.099-0.608-1.44-0.405-0.363-0.917-0.629-1.536-0.8-0.619-0.192-1.44-0.373-2.464-0.544-1.365-0.256-2.464-0.512-3.296-0.768-0.832-0.277-1.547-0.736-2.144-1.376-0.576-0.64-0.864-1.525-0.864-2.656 0-1.408 0.587-2.56 1.76-3.456s2.805-1.344 4.896-1.344c1.088 0 2.176 0.149 3.264 0.448 1.088 0.277 1.984 0.651 2.688 1.12l-0.992 1.824c-1.387-0.96-3.040-1.44-4.96-1.44-1.451 0-2.549 0.256-3.296 0.768-0.725 0.512-1.088 1.184-1.088 2.016 0 0.64 0.203 1.152 0.608 1.536 0.427 0.384 0.949 0.672 1.568 0.864 0.619 0.171 1.472 0.352 2.56 0.544 1.344 0.256 2.421 0.512 3.232 0.768s1.504 0.693 2.080 1.312c0.576 0.619 0.864 1.472 0.864 2.56 0 1.472-0.619 2.645-1.856 3.52-1.216 0.854-2.912 1.28-5.088 1.28z"></path>
<path fill="#fff" d="M195.616 25.238c-2.091 0-4-0.501-5.728-1.504-1.707-1.003-3.061-2.368-4.064-4.096-0.982-1.728-1.472-3.627-1.472-5.696s0.49-3.968 1.472-5.696c1.003-1.728 2.368-3.093 4.096-4.096s3.648-1.504 5.76-1.504c2.112 0 4.021 0.491 5.728 1.472 1.728 0.981 3.083 2.336 4.064 4.064 0.981 1.707 1.472 3.605 1.472 5.696s-0.501 4.011-1.504 5.76c-1.003 1.728-2.368 3.093-4.096 4.096s-3.637 1.504-5.728 1.504zM195.616 24.054c1.877 0 3.584-0.448 5.12-1.344 1.536-0.917 2.752-2.144 3.648-3.68 0.896-1.557 1.344-3.275 1.344-5.152s-0.438-3.573-1.312-5.088c-0.875-1.536-2.080-2.741-3.616-3.616-1.515-0.896-3.221-1.344-5.12-1.344s-3.627 0.448-5.184 1.344c-1.536 0.896-2.752 2.123-3.648 3.68-0.875 1.536-1.312 3.232-1.312 5.088s0.437 3.563 1.312 5.12c0.896 1.536 2.112 2.752 3.648 3.648s3.243 1.344 5.12 1.344zM195.904 20.598c-1.259 0-2.4-0.277-3.424-0.832-1.003-0.576-1.792-1.365-2.368-2.368-0.576-1.024-0.864-2.176-0.864-3.456s0.288-2.421 0.864-3.424c0.576-1.024 1.365-1.813 2.368-2.368 1.024-0.576 2.165-0.864 3.424-0.864 1.088 0 2.069 0.224 2.944 0.672 0.896 0.427 1.611 1.024 2.144 1.792l-1.376 1.024c-0.448-0.619-0.992-1.077-1.632-1.376s-1.344-0.448-2.112-0.448c-1.387 0-2.539 0.459-3.456 1.376-0.896 0.917-1.344 2.123-1.344 3.616s0.448 2.699 1.344 3.616c0.917 0.917 2.069 1.376 3.456 1.376 0.768 0 1.472-0.149 2.112-0.448s1.184-0.757 1.632-1.376l1.376 0.992c-0.533 0.789-1.248 1.408-2.144 1.856-0.875 0.427-1.856 0.64-2.944 0.64z"></path>
<path fill="#fff" d="M233.897 23.094v2.048h-15.712v-1.632l9.312-9.12c1.172-1.152 1.963-2.144 2.368-2.976 0.427-0.853 0.64-1.707 0.64-2.56 0-1.323-0.459-2.347-1.376-3.072-0.896-0.747-2.186-1.12-3.872-1.12-2.624 0-4.661 0.832-6.112 2.496l-1.632-1.408c0.875-1.024 1.984-1.813 3.328-2.368 1.365-0.555 2.901-0.832 4.608-0.832 2.282 0 4.084 0.544 5.408 1.632 1.344 1.067 2.016 2.539 2.016 4.416 0 1.152-0.256 2.261-0.768 3.328s-1.483 2.293-2.912 3.68l-7.616 7.488h12.32z"></path>
<path fill="#fff" d="M245.593 25.334c-1.728 0-3.275-0.459-4.642-1.376-1.344-0.917-2.398-2.229-3.166-3.936-0.747-1.728-1.122-3.755-1.122-6.080s0.375-4.341 1.122-6.048c0.768-1.728 1.822-3.051 3.166-3.968 1.367-0.917 2.914-1.376 4.642-1.376 1.726 0 3.264 0.459 4.608 1.376 1.365 0.917 2.432 2.24 3.2 3.968 0.768 1.707 1.152 3.723 1.152 6.048s-0.384 4.352-1.152 6.080c-0.768 1.707-1.835 3.019-3.2 3.936-1.344 0.918-2.882 1.376-4.608 1.376zM245.593 23.222c1.301 0 2.441-0.363 3.424-1.088 1.001-0.725 1.781-1.781 2.334-3.168 0.555-1.387 0.832-3.061 0.832-5.024s-0.277-3.637-0.832-5.024c-0.553-1.387-1.333-2.443-2.334-3.168-0.983-0.725-2.123-1.088-3.424-1.088-1.303 0-2.455 0.363-3.456 1.088-0.983 0.725-1.751 1.781-2.306 3.168-0.553 1.387-0.832 3.061-0.832 5.024s0.279 3.637 0.832 5.024c0.555 1.387 1.323 2.443 2.306 3.168 1.001 0.725 2.153 1.088 3.456 1.088z"></path>
<path fill="#fff" d="M273.086 23.094v2.048h-15.712v-1.632l9.312-9.12c1.173-1.152 1.961-2.144 2.368-2.976 0.425-0.853 0.64-1.707 0.64-2.56 0-1.323-0.459-2.347-1.376-3.072-0.896-0.747-2.187-1.12-3.872-1.12-2.624 0-4.663 0.832-6.112 2.496l-1.632-1.408c0.873-1.024 1.984-1.813 3.328-2.368 1.365-0.555 2.901-0.832 4.608-0.832 2.281 0 4.085 0.544 5.408 1.632 1.344 1.067 2.016 2.539 2.016 4.416 0 1.152-0.256 2.261-0.768 3.328s-1.483 2.293-2.912 3.68l-7.616 7.488h12.32z"></path>
<path fill="#fff" d="M284.779 25.334c-1.728 0-3.275-0.459-4.64-1.376-1.344-0.917-2.4-2.229-3.168-3.936-0.747-1.728-1.12-3.755-1.12-6.080s0.373-4.341 1.12-6.048c0.768-1.728 1.824-3.051 3.168-3.968 1.365-0.917 2.912-1.376 4.64-1.376s3.264 0.459 4.608 1.376c1.365 0.917 2.432 2.24 3.2 3.968 0.768 1.707 1.152 3.723 1.152 6.048s-0.384 4.352-1.152 6.080c-0.768 1.707-1.835 3.019-3.2 3.936-1.344 0.918-2.88 1.376-4.608 1.376zM284.779 23.222c1.301 0 2.443-0.363 3.424-1.088 1.003-0.725 1.781-1.781 2.336-3.168s0.832-3.061 0.832-5.024c0-1.963-0.277-3.637-0.832-5.024s-1.333-2.443-2.336-3.168c-0.981-0.725-2.123-1.088-3.424-1.088s-2.453 0.363-3.456 1.088c-0.981 0.725-1.749 1.781-2.304 3.168s-0.832 3.061-0.832 5.024c0 1.963 0.277 3.637 0.832 5.024s1.323 2.443 2.304 3.168c1.003 0.725 2.155 1.088 3.456 1.088z"></path>
<path fill="#fff" d="M330.663 2.742v22.4h-2.272v-17.92l-8.8 15.072h-1.12l-8.8-14.976v17.824h-2.272v-22.4h1.952l9.728 16.608 9.632-16.608h1.952z"></path>
<path fill="#fff" d="M344.361 25.302c-1.623 0-3.083-0.363-4.384-1.088-1.303-0.747-2.327-1.771-3.072-3.072-0.747-1.301-1.12-2.773-1.12-4.416s0.373-3.115 1.12-4.416c0.745-1.301 1.769-2.315 3.072-3.040 1.301-0.725 2.761-1.088 4.384-1.088 1.621 0 3.081 0.363 4.384 1.088 1.301 0.725 2.313 1.739 3.040 3.040 0.745 1.301 1.12 2.773 1.12 4.416s-0.375 3.115-1.12 4.416c-0.727 1.301-1.739 2.325-3.040 3.072-1.303 0.725-2.763 1.088-4.384 1.088zM344.361 23.286c1.193 0 2.261-0.267 3.2-0.8 0.96-0.555 1.705-1.333 2.24-2.336 0.533-1.003 0.8-2.144 0.8-3.424s-0.267-2.421-0.8-3.424c-0.535-1.003-1.28-1.771-2.24-2.304-0.939-0.555-2.007-0.832-3.2-0.832-1.195 0-2.272 0.277-3.232 0.832-0.939 0.533-1.687 1.301-2.24 2.304-0.535 1.003-0.8 2.144-0.8 3.424s0.265 2.421 0.8 3.424c0.553 1.003 1.301 1.781 2.24 2.336 0.96 0.533 2.037 0.8 3.232 0.8z"></path>
<path fill="#fff" d="M366.119 8.182c2.112 0 3.787 0.619 5.024 1.856 1.259 1.216 1.888 2.997 1.888 5.344v9.76h-2.272v-9.536c0-1.749-0.437-3.083-1.312-4s-2.123-1.376-3.744-1.376c-1.813 0-3.253 0.544-4.32 1.632-1.045 1.067-1.568 2.549-1.568 4.448v8.832h-2.272v-16.832h2.176v3.104c0.619-1.024 1.472-1.813 2.56-2.368 1.109-0.576 2.389-0.864 3.84-0.864z"></path>
<path fill="#fff" d="M388.064 24.118c-0.427 0.384-0.96 0.683-1.6 0.896-0.619 0.192-1.271 0.288-1.952 0.288-1.579 0-2.795-0.427-3.648-1.28-0.855-0.853-1.28-2.059-1.28-3.616v-10.176h-3.008v-1.92h3.008v-3.68h2.272v3.68h5.12v1.92h-5.12v10.048c0 1.003 0.245 1.771 0.736 2.304 0.512 0.512 1.237 0.768 2.176 0.768 0.469 0 0.917-0.075 1.344-0.224 0.448-0.149 0.832-0.363 1.152-0.64l0.8 1.632z"></path>
<path fill="#fff" d="M392.199 8.31h2.272v16.832h-2.272v-16.832zM393.351 4.63c-0.469 0-0.864-0.16-1.184-0.48s-0.48-0.704-0.48-1.152c0-0.427 0.16-0.8 0.48-1.12s0.715-0.48 1.184-0.48c0.471 0 0.864 0.16 1.184 0.48 0.32 0.299 0.48 0.661 0.48 1.088 0 0.469-0.16 0.864-0.48 1.184s-0.713 0.48-1.184 0.48z"></path>
<path fill="#fff" d="M407.769 25.302c-1.664 0-3.157-0.363-4.48-1.088-1.301-0.725-2.325-1.739-3.072-3.040-0.747-1.323-1.12-2.805-1.12-4.448s0.373-3.115 1.12-4.416c0.747-1.301 1.771-2.315 3.072-3.040 1.323-0.725 2.816-1.088 4.48-1.088 1.451 0 2.741 0.288 3.872 0.864 1.152 0.555 2.059 1.376 2.72 2.464l-1.696 1.152c-0.555-0.832-1.259-1.451-2.112-1.856-0.853-0.427-1.781-0.64-2.784-0.64-1.216 0-2.315 0.277-3.296 0.832-0.96 0.533-1.717 1.301-2.272 2.304-0.533 1.003-0.8 2.144-0.8 3.424 0 1.301 0.267 2.453 0.8 3.456 0.555 0.981 1.312 1.749 2.272 2.304 0.981 0.533 2.080 0.8 3.296 0.8 1.003 0 1.931-0.203 2.784-0.608s1.557-1.024 2.112-1.856l1.696 1.152c-0.661 1.088-1.568 1.92-2.72 2.496-1.152 0.555-2.443 0.832-3.872 0.832z"></path>
<path fill="#fff" d="M427.15 8.182c2.112 0 3.787 0.619 5.024 1.856 1.259 1.216 1.888 2.997 1.888 5.344v9.76h-2.272v-9.536c0-1.749-0.437-3.083-1.312-4-0.873-0.917-2.121-1.376-3.744-1.376-1.813 0-3.253 0.544-4.32 1.632-1.045 1.067-1.568 2.549-1.568 4.448v8.832h-2.272v-23.744h2.272v9.856c0.619-0.981 1.472-1.739 2.56-2.272s2.336-0.8 3.744-0.8z"></path>
<path fill="#fff" d="M454.949 17.43h-14.080c0.128 1.749 0.8 3.168 2.016 4.256 1.216 1.067 2.752 1.6 4.608 1.6 1.047 0 2.007-0.181 2.88-0.544 0.875-0.384 1.632-0.939 2.272-1.664l1.28 1.472c-0.745 0.896-1.685 1.579-2.816 2.048-1.109 0.47-2.336 0.704-3.68 0.704-1.728 0-3.264-0.363-4.608-1.088-1.321-0.747-2.357-1.771-3.104-3.072-0.745-1.301-1.12-2.773-1.12-4.416s0.352-3.115 1.056-4.416c0.727-1.301 1.707-2.315 2.944-3.040 1.259-0.725 2.667-1.088 4.224-1.088 1.559 0 2.955 0.363 4.192 1.088 1.239 0.725 2.208 1.739 2.912 3.040 0.704 1.28 1.056 2.752 1.056 4.416l-0.032 0.704zM446.821 10.134c-1.621 0-2.985 0.523-4.096 1.568-1.088 1.024-1.705 2.368-1.856 4.032h11.936c-0.149-1.664-0.777-3.008-1.888-4.032-1.088-1.045-2.453-1.568-4.096-1.568z"></path>
<path fill="#fff" d="M459.605 1.398h2.272v23.744h-2.272v-23.744z"></path>
<path fill="#fff" d="M468.199 1.398h2.272v23.744h-2.272v-23.744z"></path>
<path fill="#fff" d="M483.673 25.302c-1.621 0-3.083-0.363-4.384-1.088-1.301-0.747-2.325-1.771-3.072-3.072s-1.12-2.773-1.12-4.416c0-1.643 0.373-3.115 1.12-4.416s1.771-2.315 3.072-3.040c1.301-0.725 2.763-1.088 4.384-1.088s3.083 0.363 4.384 1.088c1.301 0.725 2.315 1.739 3.040 3.040 0.747 1.301 1.12 2.773 1.12 4.416s-0.373 3.115-1.12 4.416c-0.725 1.301-1.739 2.325-3.040 3.072-1.301 0.725-2.763 1.088-4.384 1.088zM483.673 23.286c1.195 0 2.261-0.267 3.2-0.8 0.96-0.555 1.707-1.333 2.24-2.336s0.8-2.144 0.8-3.424c0-1.28-0.267-2.421-0.8-3.424s-1.28-1.771-2.24-2.304c-0.939-0.555-2.005-0.832-3.2-0.832s-2.272 0.277-3.232 0.832c-0.939 0.533-1.685 1.301-2.24 2.304-0.533 1.003-0.8 2.144-0.8 3.424s0.267 2.421 0.8 3.424c0.555 1.003 1.301 1.781 2.24 2.336 0.96 0.533 2.037 0.8 3.232 0.8z"></path>
</svg>
