<!-- Generated by IcoMoon.io -->
<svg version="1.1" xmlns="http://www.w3.org/2000/svg" width="32" height="32" viewBox="0 0 32 32">
<title>facebook</title>
<path fill="#fff" d="M18.975 16.8h-1.875v5.6h-2.5v-5.6h-2.025v-2.325h2.025v-1.75c0-0.667 0.125-1.233 0.375-1.7s0.6-0.817 1.050-1.050c0.467-0.25 1-0.375 1.6-0.375 0.267 0 0.55 0.017 0.85 0.050 0.3 0.017 0.533 0.042 0.7 0.075l0.25 0.025v1.975h-1c-0.467 0-0.808 0.125-1.025 0.375-0.2 0.233-0.3 0.525-0.3 0.875v1.5h2.225l-0.35 2.325z"></path>
<path fill="none" opacity="0.4" stroke="#fff" stroke-linejoin="miter" stroke-linecap="butt" stroke-miterlimit="4" stroke-width="0.8" d="M31.6 16c0 8.616-6.984 15.6-15.6 15.6s-15.6-6.984-15.6-15.6c0-8.616 6.984-15.6 15.6-15.6s15.6 6.984 15.6 15.6z"></path>
</svg>
