<svg width="165" height="20" viewBox="0 0 165 20" fill="none" xmlns="http://www.w3.org/2000/svg">
<path d="M26.9468 16H25.7236L26.771 10.9609H21.937L20.875 16H19.6299L21.8931 5.29199H23.1382L22.1787 9.84766H27.0127L27.9868 5.29199H29.2173L26.9468 16ZM33.8901 7.87012C34.8179 7.87012 35.5503 8.146 36.0874 8.69775C36.6245 9.24463 36.8931 9.99902 36.8931 10.9609C36.8931 11.8789 36.7173 12.7456 36.3657 13.561C36.0142 14.3765 35.5381 15.0063 34.9375 15.4507C34.3369 15.895 33.6582 16.1172 32.9014 16.1172C31.9639 16.1172 31.229 15.8413 30.6968 15.2896C30.1646 14.7378 29.8984 13.9834 29.8984 13.0264C29.8984 12.0986 30.0767 11.2271 30.4331 10.4116C30.7896 9.59131 31.2705 8.96387 31.876 8.5293C32.4814 8.08984 33.1528 7.87012 33.8901 7.87012ZM35.6187 10.7925C35.6187 10.231 35.4648 9.77686 35.1572 9.43018C34.8545 9.07861 34.4419 8.90283 33.9194 8.90283C33.3872 8.90283 32.9087 9.0835 32.4839 9.44482C32.064 9.80615 31.7368 10.3091 31.5024 10.9536C31.2729 11.5933 31.1582 12.3062 31.1582 13.0923C31.1582 13.7319 31.312 14.2275 31.6196 14.5791C31.9321 14.9258 32.3789 15.0991 32.96 15.0991C33.4678 15.0991 33.9243 14.9209 34.3296 14.5645C34.7349 14.208 35.0498 13.7026 35.2744 13.0483C35.5039 12.3892 35.6187 11.6372 35.6187 10.7925ZM42.9429 16L44.0269 10.9316C44.1245 10.4238 44.1733 10.0723 44.1733 9.87695C44.1733 9.56934 44.0854 9.32275 43.9097 9.13721C43.7388 8.95166 43.4629 8.85889 43.082 8.85889C42.6475 8.85889 42.2227 9.00537 41.8076 9.29834C41.3975 9.59131 41.0337 10.0088 40.7163 10.5508C40.4038 11.0928 40.167 11.7495 40.0059 12.521L39.2661 16H38.0356L39.7495 7.97266H40.7676L40.6064 9.45947H40.6797C41.1484 8.86377 41.6001 8.44385 42.0347 8.19971C42.4741 7.95068 42.9282 7.82617 43.397 7.82617C44.0171 7.82617 44.5054 7.99707 44.8618 8.33887C45.2231 8.67578 45.4038 9.14941 45.4038 9.75977C45.4038 10.1455 45.3477 10.585 45.2354 11.0781L44.188 16H42.9429ZM54.3174 7.97266L54.1343 8.75635L52.5889 8.93213C52.7891 9.23486 52.8892 9.62061 52.8892 10.0894C52.8892 11.022 52.6035 11.7666 52.0322 12.3232C51.4658 12.875 50.7065 13.1509 49.7544 13.1509C49.4858 13.1509 49.2808 13.1313 49.1392 13.0923C48.4604 13.3511 48.1211 13.6709 48.1211 14.0518C48.1211 14.252 48.2017 14.3862 48.3628 14.4546C48.5239 14.5181 48.7583 14.5693 49.0659 14.6084L49.9229 14.7109C50.8066 14.8184 51.4463 15.0332 51.8418 15.3555C52.2422 15.6777 52.4424 16.1514 52.4424 16.7764C52.4424 17.6748 52.0859 18.3706 51.373 18.8638C50.6602 19.3569 49.6567 19.6035 48.3628 19.6035C47.4155 19.6035 46.6733 19.4229 46.1362 19.0615C45.5991 18.7051 45.3306 18.1997 45.3306 17.5454C45.3306 17.0327 45.5063 16.5884 45.8579 16.2124C46.2095 15.8364 46.7783 15.5166 47.5645 15.2529C47.1836 15.0527 46.9932 14.7573 46.9932 14.3667C46.9932 14.0298 47.1177 13.7417 47.3667 13.5024C47.6157 13.2583 47.9624 13.0312 48.4067 12.8213C48.0991 12.665 47.8477 12.4355 47.6523 12.1328C47.457 11.8252 47.3594 11.4688 47.3594 11.0635C47.3594 10.1162 47.6499 9.33984 48.231 8.73438C48.8169 8.12891 49.564 7.82617 50.4722 7.82617C50.853 7.82617 51.229 7.875 51.6001 7.97266H54.3174ZM46.5171 17.4282C46.5171 17.8042 46.6758 18.1021 46.9932 18.3218C47.3105 18.5415 47.7817 18.6514 48.4067 18.6514C49.2954 18.6514 49.9888 18.4951 50.4868 18.1826C50.9897 17.875 51.2412 17.438 51.2412 16.8716C51.2412 16.5688 51.1094 16.3296 50.8457 16.1538C50.582 15.978 50.1328 15.856 49.498 15.7876L48.3335 15.6704C47.7476 15.7925 47.2983 16.0073 46.9858 16.3149C46.6733 16.6226 46.5171 16.9937 46.5171 17.4282ZM48.5532 11.0195C48.5532 11.4346 48.6631 11.752 48.8828 11.9717C49.1025 12.1865 49.4077 12.2939 49.7983 12.2939C50.1841 12.2939 50.521 12.1914 50.8091 11.9863C51.0972 11.7812 51.3169 11.5005 51.4683 11.144C51.6245 10.7827 51.7026 10.3921 51.7026 9.97217C51.7026 9.57178 51.5952 9.2666 51.3804 9.05664C51.1655 8.84668 50.8579 8.7417 50.4575 8.7417C50.0767 8.7417 49.7422 8.8418 49.4541 9.04199C49.1709 9.2373 48.9487 9.51318 48.7876 9.86963C48.6313 10.2212 48.5532 10.6045 48.5532 11.0195ZM65.2451 16H63.8828C63.5312 15.1162 63.1724 14.2397 62.8062 13.3706C62.4448 12.4966 62.0884 11.6128 61.7368 10.7192L60.4624 11.6787L59.5469 16H58.3018L60.5649 5.29199H61.8101L60.7041 10.4922L65.8311 5.29199H67.3618L62.6816 9.95752L65.2451 16ZM70.7456 7.87012C71.6733 7.87012 72.4058 8.146 72.9429 8.69775C73.48 9.24463 73.7485 9.99902 73.7485 10.9609C73.7485 11.8789 73.5728 12.7456 73.2212 13.561C72.8696 14.3765 72.3936 15.0063 71.793 15.4507C71.1924 15.895 70.5137 16.1172 69.7568 16.1172C68.8193 16.1172 68.0845 15.8413 67.5522 15.2896C67.02 14.7378 66.7539 13.9834 66.7539 13.0264C66.7539 12.0986 66.9321 11.2271 67.2886 10.4116C67.645 9.59131 68.126 8.96387 68.7314 8.5293C69.3369 8.08984 70.0083 7.87012 70.7456 7.87012ZM72.4741 10.7925C72.4741 10.231 72.3203 9.77686 72.0127 9.43018C71.71 9.07861 71.2974 8.90283 70.7749 8.90283C70.2427 8.90283 69.7642 9.0835 69.3394 9.44482C68.9194 9.80615 68.5923 10.3091 68.3579 10.9536C68.1284 11.5933 68.0137 12.3062 68.0137 13.0923C68.0137 13.7319 68.1675 14.2275 68.4751 14.5791C68.7876 14.9258 69.2344 15.0991 69.8154 15.0991C70.3232 15.0991 70.7798 14.9209 71.1851 14.5645C71.5903 14.208 71.9053 13.7026 72.1299 13.0483C72.3594 12.3892 72.4741 11.6372 72.4741 10.7925ZM79.7983 16L80.8823 10.9316C80.98 10.4238 81.0288 10.0723 81.0288 9.87695C81.0288 9.56934 80.9409 9.32275 80.7651 9.13721C80.5942 8.95166 80.3184 8.85889 79.9375 8.85889C79.5029 8.85889 79.0781 9.00537 78.6631 9.29834C78.2529 9.59131 77.8892 10.0088 77.5718 10.5508C77.2593 11.0928 77.0225 11.7495 76.8613 12.521L76.1216 16H74.8911L76.605 7.97266H77.623L77.4619 9.45947H77.5352C78.0039 8.86377 78.4556 8.44385 78.8901 8.19971C79.3296 7.95068 79.7837 7.82617 80.2524 7.82617C80.8726 7.82617 81.3608 7.99707 81.7173 8.33887C82.0786 8.67578 82.2593 9.14941 82.2593 9.75977C82.2593 10.1455 82.2031 10.585 82.0908 11.0781L81.0435 16H79.7983ZM91.1729 7.97266L90.9897 8.75635L89.4443 8.93213C89.6445 9.23486 89.7446 9.62061 89.7446 10.0894C89.7446 11.022 89.459 11.7666 88.8877 12.3232C88.3213 12.875 87.562 13.1509 86.6099 13.1509C86.3413 13.1509 86.1362 13.1313 85.9946 13.0923C85.3159 13.3511 84.9766 13.6709 84.9766 14.0518C84.9766 14.252 85.0571 14.3862 85.2183 14.4546C85.3794 14.5181 85.6138 14.5693 85.9214 14.6084L86.7783 14.7109C87.6621 14.8184 88.3018 15.0332 88.6973 15.3555C89.0977 15.6777 89.2979 16.1514 89.2979 16.7764C89.2979 17.6748 88.9414 18.3706 88.2285 18.8638C87.5156 19.3569 86.5122 19.6035 85.2183 19.6035C84.271 19.6035 83.5288 19.4229 82.9917 19.0615C82.4546 18.7051 82.186 18.1997 82.186 17.5454C82.186 17.0327 82.3618 16.5884 82.7134 16.2124C83.0649 15.8364 83.6338 15.5166 84.4199 15.2529C84.0391 15.0527 83.8486 14.7573 83.8486 14.3667C83.8486 14.0298 83.9731 13.7417 84.2222 13.5024C84.4712 13.2583 84.8179 13.0312 85.2622 12.8213C84.9546 12.665 84.7031 12.4355 84.5078 12.1328C84.3125 11.8252 84.2148 11.4688 84.2148 11.0635C84.2148 10.1162 84.5054 9.33984 85.0864 8.73438C85.6724 8.12891 86.4194 7.82617 87.3276 7.82617C87.7085 7.82617 88.0845 7.875 88.4556 7.97266H91.1729ZM83.3726 17.4282C83.3726 17.8042 83.5312 18.1021 83.8486 18.3218C84.166 18.5415 84.6372 18.6514 85.2622 18.6514C86.1509 18.6514 86.8442 18.4951 87.3423 18.1826C87.8452 17.875 88.0967 17.438 88.0967 16.8716C88.0967 16.5688 87.9648 16.3296 87.7012 16.1538C87.4375 15.978 86.9883 15.856 86.3535 15.7876L85.189 15.6704C84.603 15.7925 84.1538 16.0073 83.8413 16.3149C83.5288 16.6226 83.3726 16.9937 83.3726 17.4282ZM85.4087 11.0195C85.4087 11.4346 85.5186 11.752 85.7383 11.9717C85.958 12.1865 86.2632 12.2939 86.6538 12.2939C87.0396 12.2939 87.3765 12.1914 87.6646 11.9863C87.9526 11.7812 88.1724 11.5005 88.3237 11.144C88.48 10.7827 88.5581 10.3921 88.5581 9.97217C88.5581 9.57178 88.4507 9.2666 88.2358 9.05664C88.021 8.84668 87.7134 8.7417 87.313 8.7417C86.9321 8.7417 86.5977 8.8418 86.3096 9.04199C86.0264 9.2373 85.8042 9.51318 85.6431 9.86963C85.4868 10.2212 85.4087 10.6045 85.4087 11.0195ZM94.9302 12.5649L95.1865 11.4077H98.6948L98.4458 12.5649H94.9302ZM107.418 16H106.158L107.594 9.31299C107.882 8.03857 108.097 7.16211 108.238 6.68359C107.994 6.94238 107.655 7.21338 107.22 7.49658L105.917 8.30225L105.331 7.37207L108.619 5.29199H109.71L107.418 16ZM115.753 9.45947C116.642 9.45947 117.347 9.71582 117.87 10.2285C118.397 10.7363 118.661 11.4248 118.661 12.2939C118.661 13.0801 118.482 13.771 118.126 14.3667C117.77 14.9624 117.271 15.4092 116.632 15.707C115.992 16 115.24 16.1465 114.376 16.1465C113.434 16.1465 112.628 15.9536 111.959 15.5679V14.3667C112.76 14.8647 113.575 15.1138 114.405 15.1138C115.338 15.1138 116.065 14.8794 116.588 14.4106C117.11 13.9419 117.372 13.2876 117.372 12.4478C117.372 11.8325 117.191 11.3467 116.83 10.9902C116.473 10.6289 115.975 10.4482 115.335 10.4482C115.101 10.4482 114.864 10.4653 114.625 10.4995C114.386 10.5288 114.046 10.6021 113.607 10.7192L113.065 10.3018L114.508 5.29199H119.4L119.159 6.4126H115.335L114.405 9.62793C114.83 9.51562 115.279 9.45947 115.753 9.45947ZM125.062 5.12354C125.912 5.12354 126.573 5.33594 127.047 5.76074C127.525 6.18066 127.765 6.75439 127.765 7.48193C127.765 8.11182 127.574 8.66113 127.193 9.12988C126.812 9.59863 126.163 10.0283 125.245 10.4189C125.865 10.7998 126.305 11.2026 126.563 11.6274C126.822 12.0522 126.952 12.5454 126.952 13.1069C126.952 13.7026 126.805 14.2349 126.512 14.7036C126.219 15.1675 125.797 15.5239 125.245 15.7729C124.698 16.022 124.054 16.1465 123.312 16.1465C122.384 16.1465 121.656 15.9072 121.129 15.4287C120.602 14.9453 120.338 14.291 120.338 13.4658C120.338 12.7432 120.57 12.1182 121.034 11.5908C121.498 11.0635 122.22 10.6143 123.202 10.2432C122.738 9.90625 122.406 9.55469 122.206 9.18848C122.01 8.81738 121.913 8.39746 121.913 7.92871C121.913 7.38672 122.044 6.90332 122.308 6.47852C122.577 6.04883 122.953 5.7168 123.436 5.48242C123.919 5.24316 124.461 5.12354 125.062 5.12354ZM124.088 10.873C123.185 11.166 122.545 11.5176 122.169 11.9277C121.798 12.333 121.612 12.8262 121.612 13.4072C121.612 13.9297 121.781 14.3447 122.118 14.6523C122.455 14.96 122.896 15.1138 123.443 15.1138C124.122 15.1138 124.664 14.9331 125.069 14.5718C125.475 14.2104 125.677 13.7319 125.677 13.1362C125.677 12.6528 125.55 12.228 125.296 11.8618C125.042 11.4956 124.64 11.166 124.088 10.873ZM124.974 6.17822C124.417 6.17822 123.973 6.33936 123.641 6.66162C123.309 6.979 123.143 7.40625 123.143 7.94336C123.143 8.34375 123.238 8.69531 123.429 8.99805C123.619 9.30078 123.929 9.58398 124.359 9.84766C125.145 9.55469 125.702 9.23486 126.029 8.88818C126.356 8.53662 126.52 8.11182 126.52 7.61377C126.52 7.17432 126.378 6.8252 126.095 6.56641C125.816 6.30762 125.443 6.17822 124.974 6.17822ZM133.324 5.12354C134.173 5.12354 134.835 5.33594 135.309 5.76074C135.787 6.18066 136.026 6.75439 136.026 7.48193C136.026 8.11182 135.836 8.66113 135.455 9.12988C135.074 9.59863 134.425 10.0283 133.507 10.4189C134.127 10.7998 134.566 11.2026 134.825 11.6274C135.084 12.0522 135.213 12.5454 135.213 13.1069C135.213 13.7026 135.067 14.2349 134.774 14.7036C134.481 15.1675 134.059 15.5239 133.507 15.7729C132.96 16.022 132.315 16.1465 131.573 16.1465C130.646 16.1465 129.918 15.9072 129.391 15.4287C128.863 14.9453 128.6 14.291 128.6 13.4658C128.6 12.7432 128.832 12.1182 129.295 11.5908C129.759 11.0635 130.482 10.6143 131.463 10.2432C131 9.90625 130.667 9.55469 130.467 9.18848C130.272 8.81738 130.174 8.39746 130.174 7.92871C130.174 7.38672 130.306 6.90332 130.57 6.47852C130.838 6.04883 131.214 5.7168 131.698 5.48242C132.181 5.24316 132.723 5.12354 133.324 5.12354ZM132.35 10.873C131.446 11.166 130.807 11.5176 130.431 11.9277C130.06 12.333 129.874 12.8262 129.874 13.4072C129.874 13.9297 130.042 14.3447 130.379 14.6523C130.716 14.96 131.158 15.1138 131.705 15.1138C132.384 15.1138 132.926 14.9331 133.331 14.5718C133.736 14.2104 133.939 13.7319 133.939 13.1362C133.939 12.6528 133.812 12.228 133.558 11.8618C133.304 11.4956 132.901 11.166 132.35 10.873ZM133.236 6.17822C132.679 6.17822 132.235 6.33936 131.903 6.66162C131.571 6.979 131.405 7.40625 131.405 7.94336C131.405 8.34375 131.5 8.69531 131.69 8.99805C131.881 9.30078 132.191 9.58398 132.621 9.84766C133.407 9.55469 133.963 9.23486 134.291 8.88818C134.618 8.53662 134.781 8.11182 134.781 7.61377C134.781 7.17432 134.64 6.8252 134.356 6.56641C134.078 6.30762 133.705 6.17822 133.236 6.17822ZM139.293 19.6035C138.956 19.6035 138.651 19.5522 138.377 19.4497V18.417C138.69 18.5244 138.963 18.5781 139.198 18.5781C139.569 18.5781 139.854 18.4268 140.055 18.124C140.255 17.8213 140.416 17.3892 140.538 16.8276L142.201 8.90283H140.787L140.882 8.41211L142.391 7.92871L142.56 7.19629C142.784 6.21973 143.094 5.53125 143.49 5.13086C143.89 4.72559 144.481 4.52295 145.262 4.52295C145.458 4.52295 145.697 4.55225 145.98 4.61084C146.263 4.66455 146.483 4.72559 146.639 4.79395L146.324 5.73877C145.953 5.59717 145.619 5.52637 145.321 5.52637C144.896 5.52637 144.569 5.646 144.339 5.88525C144.115 6.11963 143.932 6.55176 143.79 7.18164L143.607 7.97266H145.35L145.167 8.90283H143.431L141.732 16.9448C141.542 17.8677 141.249 18.5415 140.853 18.9663C140.458 19.3911 139.938 19.6035 139.293 19.6035ZM148.36 16.1465C147.462 16.1465 146.756 15.8804 146.244 15.3481C145.731 14.8159 145.475 14.0786 145.475 13.1362C145.475 12.2183 145.655 11.3394 146.017 10.4995C146.383 9.65479 146.866 8.99805 147.467 8.5293C148.067 8.06055 148.729 7.82617 149.452 7.82617C150.199 7.82617 150.76 7.98975 151.136 8.31689C151.512 8.63916 151.7 9.09082 151.7 9.67188C151.7 10.5508 151.295 11.2417 150.484 11.7446C149.674 12.2427 148.514 12.4917 147.005 12.4917H146.764L146.734 13.0776C146.734 13.7173 146.883 14.2178 147.181 14.5791C147.484 14.9355 147.95 15.1138 148.58 15.1138C148.888 15.1138 149.203 15.0698 149.525 14.9819C149.852 14.894 150.257 14.7329 150.741 14.4985V15.5679C150.282 15.7827 149.876 15.9316 149.525 16.0146C149.173 16.1025 148.785 16.1465 148.36 16.1465ZM149.378 8.87354C148.875 8.87354 148.402 9.10303 147.958 9.56201C147.518 10.021 147.181 10.6582 146.947 11.4736H147.035C148.148 11.4736 149 11.3296 149.591 11.0415C150.187 10.7485 150.484 10.3262 150.484 9.77441C150.484 9.51562 150.394 9.30078 150.213 9.12988C150.038 8.95898 149.759 8.87354 149.378 8.87354ZM155.758 16.1465C154.859 16.1465 154.154 15.8804 153.641 15.3481C153.128 14.8159 152.872 14.0786 152.872 13.1362C152.872 12.2183 153.053 11.3394 153.414 10.4995C153.78 9.65479 154.264 8.99805 154.864 8.5293C155.465 8.06055 156.126 7.82617 156.849 7.82617C157.596 7.82617 158.158 7.98975 158.534 8.31689C158.91 8.63916 159.098 9.09082 159.098 9.67188C159.098 10.5508 158.692 11.2417 157.882 11.7446C157.071 12.2427 155.912 12.4917 154.403 12.4917H154.161L154.132 13.0776C154.132 13.7173 154.281 14.2178 154.579 14.5791C154.881 14.9355 155.348 15.1138 155.978 15.1138C156.285 15.1138 156.6 15.0698 156.922 14.9819C157.25 14.894 157.655 14.7329 158.138 14.4985V15.5679C157.679 15.7827 157.274 15.9316 156.922 16.0146C156.571 16.1025 156.183 16.1465 155.758 16.1465ZM156.776 8.87354C156.273 8.87354 155.799 9.10303 155.355 9.56201C154.916 10.021 154.579 10.6582 154.344 11.4736H154.432C155.545 11.4736 156.397 11.3296 156.988 11.0415C157.584 10.7485 157.882 10.3262 157.882 9.77441C157.882 9.51562 157.792 9.30078 157.611 9.12988C157.435 8.95898 157.157 8.87354 156.776 8.87354ZM162.445 15.1431C162.713 15.1431 163.065 15.0796 163.5 14.9526V15.8975C163.333 15.9658 163.128 16.0244 162.884 16.0732C162.64 16.1221 162.445 16.1465 162.298 16.1465C161.688 16.1465 161.219 16.0024 160.892 15.7144C160.57 15.4214 160.409 14.9868 160.409 14.4106C160.409 14.0884 160.453 13.7222 160.541 13.312L161.471 8.90283H160.211L160.313 8.36816L161.668 7.79688L162.584 6.12695H163.302L162.899 7.97266H164.906L164.715 8.90283H162.716L161.771 13.3267C161.683 13.7515 161.639 14.0737 161.639 14.2935C161.639 14.5669 161.71 14.7769 161.852 14.9233C161.993 15.0698 162.191 15.1431 162.445 15.1431Z" fill="black"/>
<path d="M6.42857 8.5C6.42857 9.68025 5.46596 10.6429 4.28571 10.6429C3.10547 10.6429 2.14286 9.68025 2.14286 8.5C2.14286 7.31975 3.10547 6.35714 4.28571 6.35714C5.46596 6.35714 6.42857 7.31975 6.42857 8.5ZM8.57143 8.5C8.57143 6.13114 6.65458 4.21429 4.28571 4.21429C1.91685 4.21429 0 6.13114 0 8.5C0 9.0106 0.0585938 9.53795 0.276228 9.99833L3.33147 16.4771C3.49888 16.8454 3.88393 17.0714 4.28571 17.0714C4.6875 17.0714 5.07254 16.8454 5.24833 16.4771L8.2952 9.99833C8.51284 9.53795 8.57143 9.0106 8.57143 8.5Z" fill="#2C4058"/>
</svg>
