<!-- Generated by IcoMoon.io -->
<svg version="1.1" xmlns="http://www.w3.org/2000/svg" width="32" height="32" viewBox="0 0 32 32">
<title>instagram</title>
<path fill="#fff" d="M13.975 13.975c0.567-0.567 1.25-0.85 2.050-0.85s1.475 0.283 2.025 0.85c0.567 0.55 0.85 1.225 0.85 2.025s-0.283 1.483-0.85 2.050c-0.55 0.55-1.225 0.825-2.025 0.825s-1.483-0.275-2.050-0.825c-0.55-0.567-0.825-1.25-0.825-2.050s0.275-1.475 0.825-2.025zM14.7 17.325c0.367 0.367 0.808 0.55 1.325 0.55s0.958-0.183 1.325-0.55c0.367-0.367 0.55-0.808 0.55-1.325s-0.183-0.958-0.55-1.325c-0.367-0.367-0.808-0.55-1.325-0.55s-0.958 0.183-1.325 0.55c-0.367 0.367-0.55 0.808-0.55 1.325s0.183 0.958 0.55 1.325zM19.475 12.55c0.133 0.117 0.2 0.267 0.2 0.45s-0.067 0.342-0.2 0.475c-0.117 0.133-0.267 0.2-0.45 0.2s-0.342-0.067-0.475-0.2c-0.133-0.133-0.2-0.292-0.2-0.475s0.067-0.333 0.2-0.45c0.133-0.133 0.292-0.2 0.475-0.2s0.333 0.067 0.45 0.2zM21.6 13.7c0.017 0.45 0.025 1.217 0.025 2.3s-0.008 1.85-0.025 2.3c-0.050 1.017-0.358 1.808-0.925 2.375-0.55 0.55-1.333 0.842-2.35 0.875-0.45 0.033-1.217 0.050-2.3 0.050s-1.85-0.017-2.3-0.050c-1.017-0.050-1.8-0.35-2.35-0.9-0.217-0.2-0.392-0.433-0.525-0.7s-0.233-0.525-0.3-0.775c-0.050-0.25-0.075-0.542-0.075-0.875-0.033-0.45-0.050-1.217-0.050-2.3s0.017-1.858 0.050-2.325c0.050-1 0.35-1.775 0.9-2.325 0.55-0.567 1.333-0.875 2.35-0.925 0.45-0.017 1.217-0.025 2.3-0.025s1.85 0.008 2.3 0.025c1.017 0.050 1.8 0.358 2.35 0.925 0.567 0.55 0.875 1.333 0.925 2.35zM20.4 19.3c0.050-0.133 0.092-0.3 0.125-0.5 0.033-0.217 0.058-0.467 0.075-0.75 0.017-0.3 0.025-0.542 0.025-0.725s0-0.442 0-0.775 0-0.517 0-0.55c0-0.050 0-0.233 0-0.55 0-0.333 0-0.592 0-0.775s-0.008-0.417-0.025-0.7c-0.017-0.3-0.042-0.55-0.075-0.75-0.033-0.217-0.075-0.392-0.125-0.525-0.2-0.517-0.558-0.875-1.075-1.075-0.133-0.050-0.308-0.092-0.525-0.125-0.2-0.033-0.45-0.058-0.75-0.075-0.283-0.017-0.517-0.025-0.7-0.025-0.167 0-0.425 0-0.775 0-0.333 0-0.517 0-0.55 0s-0.217 0-0.55 0c-0.333 0-0.592 0-0.775 0s-0.425 0.008-0.725 0.025c-0.283 0.017-0.533 0.042-0.75 0.075-0.2 0.033-0.367 0.075-0.5 0.125-0.517 0.2-0.875 0.558-1.075 1.075-0.050 0.133-0.092 0.308-0.125 0.525-0.033 0.2-0.058 0.45-0.075 0.75-0.017 0.283-0.025 0.517-0.025 0.7 0 0.167 0 0.425 0 0.775 0 0.333 0 0.517 0 0.55 0 0.067 0 0.225 0 0.475 0 0.233 0 0.433 0 0.6 0 0.15 0 0.35 0 0.6 0.017 0.25 0.033 0.467 0.050 0.65 0.017 0.167 0.042 0.342 0.075 0.525s0.067 0.333 0.1 0.45c0.217 0.517 0.575 0.875 1.075 1.075 0.133 0.050 0.3 0.092 0.5 0.125 0.217 0.033 0.467 0.058 0.75 0.075 0.3 0.017 0.533 0.025 0.7 0.025 0.183 0 0.442 0 0.775 0 0.35 0 0.542 0 0.575 0 0.050 0 0.233 0 0.55 0 0.333 0 0.592 0 0.775 0s0.417-0.008 0.7-0.025c0.3-0.017 0.55-0.042 0.75-0.075 0.217-0.033 0.392-0.075 0.525-0.125 0.517-0.217 0.875-0.575 1.075-1.075z"></path>
<path fill="none" opacity="0.4" stroke="#fff" stroke-linejoin="miter" stroke-linecap="butt" stroke-miterlimit="4" stroke-width="0.8" d="M31.6 16c0 8.616-6.984 15.6-15.6 15.6s-15.6-6.984-15.6-15.6c0-8.616 6.984-15.6 15.6-15.6s15.6 6.984 15.6 15.6z"></path>
</svg>
