<svg width="278" height="20" viewBox="0 0 278 20" fill="none" xmlns="http://www.w3.org/2000/svg">
<path d="M27.3423 16H26.0166L22.6475 7.04248H22.6035C22.4473 8.12158 22.2666 9.14209 22.0615 10.104L20.8018 16H19.6152L21.8784 5.29199H23.1968L26.5586 14.2275H26.6025C26.749 13.1338 26.9248 12.145 27.1299 11.2612L28.4043 5.29199H29.6055L27.3423 16ZM33.1357 16.1465C32.2373 16.1465 31.5317 15.8804 31.019 15.3481C30.5063 14.8159 30.25 14.0786 30.25 13.1362C30.25 12.2183 30.4307 11.3394 30.792 10.4995C31.1582 9.65479 31.6416 8.99805 32.2422 8.5293C32.8428 8.06055 33.5044 7.82617 34.2271 7.82617C34.9741 7.82617 35.5356 7.98975 35.9116 8.31689C36.2876 8.63916 36.4756 9.09082 36.4756 9.67188C36.4756 10.5508 36.0703 11.2417 35.2598 11.7446C34.4492 12.2427 33.2896 12.4917 31.7808 12.4917H31.5391L31.5098 13.0776C31.5098 13.7173 31.6587 14.2178 31.9565 14.5791C32.2593 14.9355 32.7256 15.1138 33.3555 15.1138C33.6631 15.1138 33.978 15.0698 34.3003 14.9819C34.6274 14.894 35.0327 14.7329 35.5161 14.4985V15.5679C35.0571 15.7827 34.6519 15.9316 34.3003 16.0146C33.9487 16.1025 33.5605 16.1465 33.1357 16.1465ZM34.1538 8.87354C33.6509 8.87354 33.1772 9.10303 32.7329 9.56201C32.2935 10.021 31.9565 10.6582 31.7222 11.4736H31.8101C32.9233 11.4736 33.7754 11.3296 34.3662 11.0415C34.9619 10.7485 35.2598 10.3262 35.2598 9.77441C35.2598 9.51562 35.1694 9.30078 34.9888 9.12988C34.813 8.95898 34.5347 8.87354 34.1538 8.87354ZM43.0161 16L42.7817 11.5908C42.7622 11.1318 42.7524 10.7119 42.7524 10.3311V9.18848H42.6865L42.3203 10.0527L41.7124 11.437L39.5811 16H38.1016L37.7866 7.97266H38.9878L39.1196 12.3232V12.9678C39.1196 13.6855 39.1001 14.3423 39.061 14.938H39.105C39.3345 14.3325 39.6689 13.5464 40.1084 12.5796L42.269 7.97266H43.6021L43.873 12.3232C43.9023 13.1436 43.917 13.7832 43.917 14.2422V14.6304L43.9023 14.938H43.9463C44.083 14.5181 44.2856 13.9858 44.5542 13.3413C44.8228 12.6919 45.6113 10.9023 46.9199 7.97266H48.2236L44.5176 16H43.0161ZM55.5112 10.7632L59.0928 5.29199H60.5063L55.9141 12.0376L55.0864 16H53.8267L54.6982 11.979L52.9551 5.29199H54.2002L55.5112 10.7632ZM63.8315 7.87012C64.7593 7.87012 65.4917 8.146 66.0288 8.69775C66.5659 9.24463 66.8345 9.99902 66.8345 10.9609C66.8345 11.8789 66.6587 12.7456 66.3071 13.561C65.9556 14.3765 65.4795 15.0063 64.8789 15.4507C64.2783 15.895 63.5996 16.1172 62.8428 16.1172C61.9053 16.1172 61.1704 15.8413 60.6382 15.2896C60.106 14.7378 59.8398 13.9834 59.8398 13.0264C59.8398 12.0986 60.0181 11.2271 60.3745 10.4116C60.731 9.59131 61.2119 8.96387 61.8174 8.5293C62.4229 8.08984 63.0942 7.87012 63.8315 7.87012ZM65.5601 10.7925C65.5601 10.231 65.4062 9.77686 65.0986 9.43018C64.7959 9.07861 64.3833 8.90283 63.8608 8.90283C63.3286 8.90283 62.8501 9.0835 62.4253 9.44482C62.0054 9.80615 61.6782 10.3091 61.4438 10.9536C61.2144 11.5933 61.0996 12.3062 61.0996 13.0923C61.0996 13.7319 61.2534 14.2275 61.561 14.5791C61.8735 14.9258 62.3203 15.0991 62.9014 15.0991C63.4092 15.0991 63.8657 14.9209 64.271 14.5645C64.6763 14.208 64.9912 13.7026 65.2158 13.0483C65.4453 12.3892 65.5601 11.6372 65.5601 10.7925ZM73.0527 7.82617C73.3896 7.82617 73.6826 7.86035 73.9316 7.92871L73.668 9.02734C73.4092 8.96387 73.1528 8.93213 72.8989 8.93213C72.4546 8.93213 72.0371 9.07861 71.6465 9.37158C71.2607 9.66455 70.9214 10.0723 70.6284 10.5947C70.3403 11.1123 70.1279 11.6885 69.9912 12.3232L69.2075 16H67.9771L69.6909 7.97266H70.709L70.5479 9.45947H70.6211C70.9727 8.99561 71.2632 8.66357 71.4927 8.46338C71.7222 8.2583 71.9614 8.10205 72.2104 7.99463C72.4644 7.88232 72.7451 7.82617 73.0527 7.82617ZM75.9092 11.9058L79.7617 7.97266H81.2339L77.7988 11.3931L79.9595 16H78.5898L76.8687 12.1621L75.7554 13.063L75.1548 16H73.9097L76.3267 4.60352H77.5718C77.2202 6.24414 76.9053 7.71387 76.627 9.0127C76.3486 10.3115 76.0996 11.2759 75.8799 11.9058H75.9092ZM91.6123 6.25146C90.7627 6.25146 90.001 6.48828 89.3271 6.96191C88.6582 7.43555 88.126 8.13135 87.7305 9.04932C87.3398 9.9624 87.1445 10.9585 87.1445 12.0376C87.1445 12.9507 87.3813 13.6807 87.855 14.2275C88.3335 14.7695 88.9902 15.0405 89.8252 15.0405C90.5039 15.0405 91.29 14.9014 92.1836 14.623V15.7144C91.7637 15.8657 91.3633 15.9756 90.9824 16.0439C90.6016 16.1123 90.1426 16.1465 89.6055 16.1465C88.4238 16.1465 87.4961 15.7827 86.8223 15.0552C86.1484 14.3228 85.8115 13.3267 85.8115 12.0669C85.8115 10.7925 86.0679 9.6084 86.5806 8.51465C87.0981 7.41602 87.7915 6.57861 88.6606 6.00244C89.5298 5.42627 90.5137 5.13818 91.6123 5.13818C92.5742 5.13818 93.4238 5.3335 94.1611 5.72412L93.6558 6.75684C92.9819 6.41992 92.3008 6.25146 91.6123 6.25146ZM95.1499 16H93.9194L95.6333 7.97266H96.8638L95.1499 16ZM95.9775 5.92188C95.9775 5.64844 96.0557 5.42627 96.2119 5.25537C96.3682 5.07959 96.5708 4.9917 96.8198 4.9917C97.2495 4.9917 97.4644 5.21143 97.4644 5.65088C97.4644 5.91943 97.3813 6.14648 97.2153 6.33203C97.0542 6.51758 96.8662 6.61035 96.6514 6.61035C96.4561 6.61035 96.2949 6.55176 96.168 6.43457C96.041 6.3125 95.9775 6.1416 95.9775 5.92188ZM100.189 15.1431C100.458 15.1431 100.809 15.0796 101.244 14.9526V15.8975C101.078 15.9658 100.873 16.0244 100.628 16.0732C100.384 16.1221 100.189 16.1465 100.042 16.1465C99.4321 16.1465 98.9634 16.0024 98.6362 15.7144C98.314 15.4214 98.1528 14.9868 98.1528 14.4106C98.1528 14.0884 98.1968 13.7222 98.2847 13.312L99.2148 8.90283H97.9551L98.0576 8.36816L99.4126 7.79688L100.328 6.12695H101.046L100.643 7.97266H102.65L102.459 8.90283H100.46L99.5151 13.3267C99.4272 13.7515 99.3833 14.0737 99.3833 14.2935C99.3833 14.5669 99.4541 14.7769 99.5957 14.9233C99.7373 15.0698 99.9351 15.1431 100.189 15.1431ZM102.877 7.97266H104.107L104.649 11.9644C104.698 12.3013 104.745 12.7993 104.789 13.4585C104.837 14.1128 104.862 14.6401 104.862 15.0405H104.906C105.077 14.6157 105.289 14.1274 105.543 13.5757C105.797 13.0239 105.985 12.6431 106.107 12.4331L108.487 7.97266H109.791L104.693 17.3623C104.239 18.2021 103.79 18.7856 103.346 19.1128C102.901 19.4399 102.367 19.6035 101.742 19.6035C101.39 19.6035 101.048 19.5522 100.716 19.4497V18.4609C101.024 18.5488 101.344 18.5928 101.676 18.5928C102.076 18.5928 102.418 18.4683 102.701 18.2192C102.989 17.9751 103.268 17.6113 103.536 17.1279L104.093 16.1318L102.877 7.97266ZM111.219 14.2568L111.278 14.4253C110.726 15.5728 110.067 16.7422 109.3 17.9336H108.355C108.971 16.5371 109.469 15.3115 109.85 14.2568H111.219ZM126.893 5.29199L125.392 12.3672C125.123 13.6514 124.64 14.6035 123.941 15.2236C123.248 15.8389 122.301 16.1465 121.1 16.1465C119.977 16.1465 119.144 15.8926 118.602 15.3848C118.06 14.877 117.789 14.147 117.789 13.1948C117.789 12.7993 117.848 12.3086 117.965 11.7227L119.349 5.29199H120.594L119.195 11.8179C119.088 12.3354 119.034 12.7944 119.034 13.1948C119.034 13.7661 119.212 14.2178 119.569 14.5498C119.925 14.877 120.458 15.0405 121.166 15.0405C122.005 15.0405 122.657 14.8281 123.121 14.4033C123.59 13.9736 123.932 13.2656 124.146 12.2793L125.648 5.29199H126.893ZM132.064 16L133.148 10.9316C133.246 10.4238 133.294 10.0723 133.294 9.87695C133.294 9.56934 133.207 9.32275 133.031 9.13721C132.86 8.95166 132.584 8.85889 132.203 8.85889C131.769 8.85889 131.344 9.00537 130.929 9.29834C130.519 9.59131 130.155 10.0088 129.837 10.5508C129.525 11.0928 129.288 11.7495 129.127 12.521L128.387 16H127.157L128.871 7.97266H129.889L129.728 9.45947H129.801C130.27 8.86377 130.721 8.44385 131.156 8.19971C131.595 7.95068 132.049 7.82617 132.518 7.82617C133.138 7.82617 133.626 7.99707 133.983 8.33887C134.344 8.67578 134.525 9.14941 134.525 9.75977C134.525 10.1455 134.469 10.585 134.356 11.0781L133.309 16H132.064ZM137.044 16H135.814L137.528 7.97266H138.758L137.044 16ZM137.872 5.92188C137.872 5.64844 137.95 5.42627 138.106 5.25537C138.263 5.07959 138.465 4.9917 138.714 4.9917C139.144 4.9917 139.359 5.21143 139.359 5.65088C139.359 5.91943 139.276 6.14648 139.11 6.33203C138.949 6.51758 138.761 6.61035 138.546 6.61035C138.351 6.61035 138.189 6.55176 138.062 6.43457C137.936 6.3125 137.872 6.1416 137.872 5.92188ZM142.083 15.1431C142.352 15.1431 142.704 15.0796 143.138 14.9526V15.8975C142.972 15.9658 142.767 16.0244 142.523 16.0732C142.279 16.1221 142.083 16.1465 141.937 16.1465C141.327 16.1465 140.858 16.0024 140.531 15.7144C140.208 15.4214 140.047 14.9868 140.047 14.4106C140.047 14.0884 140.091 13.7222 140.179 13.312L141.109 8.90283H139.85L139.952 8.36816L141.307 7.79688L142.223 6.12695H142.94L142.538 7.97266H144.544L144.354 8.90283H142.354L141.41 13.3267C141.322 13.7515 141.278 14.0737 141.278 14.2935C141.278 14.5669 141.349 14.7769 141.49 14.9233C141.632 15.0698 141.83 15.1431 142.083 15.1431ZM147.657 16.1465C146.759 16.1465 146.053 15.8804 145.541 15.3481C145.028 14.8159 144.771 14.0786 144.771 13.1362C144.771 12.2183 144.952 11.3394 145.313 10.4995C145.68 9.65479 146.163 8.99805 146.764 8.5293C147.364 8.06055 148.026 7.82617 148.749 7.82617C149.496 7.82617 150.057 7.98975 150.433 8.31689C150.809 8.63916 150.997 9.09082 150.997 9.67188C150.997 10.5508 150.592 11.2417 149.781 11.7446C148.971 12.2427 147.811 12.4917 146.302 12.4917H146.061L146.031 13.0776C146.031 13.7173 146.18 14.2178 146.478 14.5791C146.781 14.9355 147.247 15.1138 147.877 15.1138C148.185 15.1138 148.5 15.0698 148.822 14.9819C149.149 14.894 149.554 14.7329 150.038 14.4985V15.5679C149.579 15.7827 149.173 15.9316 148.822 16.0146C148.47 16.1025 148.082 16.1465 147.657 16.1465ZM148.675 8.87354C148.172 8.87354 147.699 9.10303 147.254 9.56201C146.815 10.021 146.478 10.6582 146.244 11.4736H146.332C147.445 11.4736 148.297 11.3296 148.888 11.0415C149.483 10.7485 149.781 10.3262 149.781 9.77441C149.781 9.51562 149.691 9.30078 149.51 9.12988C149.334 8.95898 149.056 8.87354 148.675 8.87354ZM156.131 7.84082C157.079 7.84082 157.765 8.30469 158.189 9.23242H158.263C158.346 8.47559 158.456 7.80664 158.592 7.22559L159.164 4.60352H160.379L157.962 16H156.944L157.105 14.4692H157.047C156.554 15.0796 156.092 15.5117 155.663 15.7656C155.233 16.0195 154.789 16.1465 154.33 16.1465C153.651 16.1465 153.121 15.9072 152.74 15.4287C152.359 14.9502 152.169 14.2861 152.169 13.4365C152.169 12.3916 152.345 11.4346 152.696 10.5654C153.048 9.69629 153.521 9.0249 154.117 8.55127C154.718 8.07764 155.389 7.84082 156.131 7.84082ZM154.74 15.1284C155.199 15.1284 155.672 14.9014 156.161 14.4473C156.649 13.9883 157.035 13.4048 157.318 12.6968C157.606 11.9839 157.75 11.2588 157.75 10.5215C157.75 9.97949 157.618 9.56689 157.354 9.28369C157.091 9.00049 156.708 8.85889 156.205 8.85889C155.711 8.85889 155.252 9.06152 154.828 9.4668C154.408 9.86719 154.068 10.4336 153.81 11.166C153.556 11.8936 153.429 12.6602 153.429 13.4658C153.429 14.5742 153.866 15.1284 154.74 15.1284ZM170.692 12.8945C170.692 13.9248 170.348 14.7256 169.659 15.2969C168.976 15.8633 168.011 16.1465 166.766 16.1465C166.249 16.1465 165.792 16.1099 165.396 16.0366C165.006 15.9683 164.637 15.8511 164.291 15.6851V14.4399C165.082 14.8501 165.912 15.0552 166.781 15.0552C167.572 15.0552 168.199 14.8721 168.663 14.5059C169.127 14.1348 169.359 13.627 169.359 12.9824C169.359 12.6016 169.229 12.2671 168.971 11.979C168.717 11.686 168.241 11.3418 167.542 10.9463C166.805 10.5312 166.292 10.1162 166.004 9.70117C165.721 9.28613 165.58 8.79541 165.58 8.229C165.58 7.31592 165.902 6.57373 166.546 6.00244C167.191 5.42627 168.038 5.13818 169.088 5.13818C169.571 5.13818 170.021 5.18457 170.436 5.27734C170.855 5.37012 171.297 5.52881 171.761 5.75342L171.278 6.85205C170.956 6.6665 170.594 6.52002 170.194 6.4126C169.793 6.30518 169.425 6.25146 169.088 6.25146C168.434 6.25146 167.906 6.42236 167.506 6.76416C167.11 7.10107 166.913 7.56006 166.913 8.14111C166.913 8.40479 166.954 8.63184 167.037 8.82227C167.12 9.00781 167.252 9.18359 167.433 9.34961C167.613 9.51562 167.96 9.74756 168.473 10.0454C169.19 10.4751 169.674 10.812 169.923 11.0562C170.177 11.3003 170.367 11.5713 170.494 11.8691C170.626 12.1621 170.692 12.5039 170.692 12.8945ZM174.427 15.1431C174.696 15.1431 175.047 15.0796 175.482 14.9526V15.8975C175.316 15.9658 175.111 16.0244 174.867 16.0732C174.623 16.1221 174.427 16.1465 174.281 16.1465C173.67 16.1465 173.202 16.0024 172.875 15.7144C172.552 15.4214 172.391 14.9868 172.391 14.4106C172.391 14.0884 172.435 13.7222 172.523 13.312L173.453 8.90283H172.193L172.296 8.36816L173.651 7.79688L174.566 6.12695H175.284L174.881 7.97266H176.888L176.698 8.90283H174.698L173.753 13.3267C173.666 13.7515 173.622 14.0737 173.622 14.2935C173.622 14.5669 173.692 14.7769 173.834 14.9233C173.976 15.0698 174.173 15.1431 174.427 15.1431ZM181.078 7.82617C181.527 7.82617 181.927 7.94824 182.279 8.19238C182.63 8.43164 182.904 8.77832 183.099 9.23242H183.18L183.67 7.97266H184.601L182.894 16H181.92L182.11 14.4692H182.052C181.178 15.5874 180.257 16.1465 179.291 16.1465C178.612 16.1465 178.08 15.9048 177.694 15.4214C177.308 14.938 177.115 14.2764 177.115 13.4365C177.115 12.4209 177.289 11.4785 177.635 10.6094C177.982 9.74023 178.46 9.05908 179.071 8.56592C179.681 8.07275 180.35 7.82617 181.078 7.82617ZM179.686 15.1284C180.16 15.1284 180.631 14.9038 181.1 14.4546C181.568 14.0005 181.949 13.4121 182.242 12.6895C182.535 11.9619 182.682 11.2344 182.682 10.5068C182.682 10.0039 182.545 9.60352 182.271 9.30566C181.998 9.00781 181.639 8.85889 181.195 8.85889C180.687 8.85889 180.213 9.06885 179.774 9.48877C179.339 9.90869 178.998 10.4775 178.749 11.1953C178.5 11.9131 178.375 12.6699 178.375 13.4658C178.375 14.0225 178.49 14.4399 178.719 14.7183C178.949 14.9917 179.271 15.1284 179.686 15.1284ZM187.772 15.1431C188.041 15.1431 188.392 15.0796 188.827 14.9526V15.8975C188.661 15.9658 188.456 16.0244 188.211 16.0732C187.967 16.1221 187.772 16.1465 187.625 16.1465C187.015 16.1465 186.546 16.0024 186.219 15.7144C185.897 15.4214 185.736 14.9868 185.736 14.4106C185.736 14.0884 185.78 13.7222 185.868 13.312L186.798 8.90283H185.538L185.641 8.36816L186.996 7.79688L187.911 6.12695H188.629L188.226 7.97266H190.233L190.042 8.90283H188.043L187.098 13.3267C187.01 13.7515 186.966 14.0737 186.966 14.2935C186.966 14.5669 187.037 14.7769 187.179 14.9233C187.32 15.0698 187.518 15.1431 187.772 15.1431ZM193.346 16.1465C192.447 16.1465 191.742 15.8804 191.229 15.3481C190.716 14.8159 190.46 14.0786 190.46 13.1362C190.46 12.2183 190.641 11.3394 191.002 10.4995C191.368 9.65479 191.852 8.99805 192.452 8.5293C193.053 8.06055 193.714 7.82617 194.437 7.82617C195.184 7.82617 195.746 7.98975 196.122 8.31689C196.498 8.63916 196.686 9.09082 196.686 9.67188C196.686 10.5508 196.28 11.2417 195.47 11.7446C194.659 12.2427 193.5 12.4917 191.991 12.4917H191.749L191.72 13.0776C191.72 13.7173 191.869 14.2178 192.167 14.5791C192.469 14.9355 192.936 15.1138 193.565 15.1138C193.873 15.1138 194.188 15.0698 194.51 14.9819C194.837 14.894 195.243 14.7329 195.726 14.4985V15.5679C195.267 15.7827 194.862 15.9316 194.51 16.0146C194.159 16.1025 193.771 16.1465 193.346 16.1465ZM194.364 8.87354C193.861 8.87354 193.387 9.10303 192.943 9.56201C192.503 10.021 192.167 10.6582 191.932 11.4736H192.02C193.133 11.4736 193.985 11.3296 194.576 11.0415C195.172 10.7485 195.47 10.3262 195.47 9.77441C195.47 9.51562 195.379 9.30078 195.199 9.12988C195.023 8.95898 194.745 8.87354 194.364 8.87354ZM202.523 13.7222C202.523 14.4839 202.252 15.0796 201.71 15.5093C201.173 15.9341 200.414 16.1465 199.432 16.1465C198.607 16.1465 197.862 15.978 197.198 15.6411V14.4839C197.54 14.689 197.909 14.8477 198.304 14.96C198.7 15.0723 199.066 15.1284 199.403 15.1284C200.018 15.1284 200.482 15.0063 200.794 14.7622C201.107 14.5181 201.263 14.2056 201.263 13.8247C201.263 13.5464 201.178 13.312 201.007 13.1216C200.836 12.9312 200.467 12.6699 199.901 12.3379C199.266 11.9814 198.817 11.6323 198.553 11.2905C198.29 10.9487 198.158 10.5435 198.158 10.0747C198.158 9.40088 198.404 8.85889 198.897 8.44873C199.391 8.03369 200.04 7.82617 200.846 7.82617C201.681 7.82617 202.486 8.00684 203.263 8.36816L202.867 9.37158L202.457 9.18848C201.964 8.97852 201.427 8.87354 200.846 8.87354C200.392 8.87354 200.035 8.98096 199.776 9.1958C199.518 9.40576 199.388 9.6792 199.388 10.0161C199.388 10.2896 199.474 10.5239 199.645 10.7192C199.82 10.9146 200.179 11.166 200.721 11.4736C201.244 11.7666 201.617 12.0181 201.842 12.228C202.071 12.438 202.242 12.665 202.354 12.9092C202.467 13.1484 202.523 13.4194 202.523 13.7222ZM207.87 12.5649L208.126 11.4077H211.634L211.385 12.5649H207.87ZM220.357 16H219.098L220.533 9.31299C220.821 8.03857 221.036 7.16211 221.178 6.68359C220.934 6.94238 220.594 7.21338 220.16 7.49658L218.856 8.30225L218.27 7.37207L221.559 5.29199H222.65L220.357 16ZM225.587 16L231.212 6.3833H225.946L226.173 5.29199H232.699L232.501 6.31006L226.905 16H225.587ZM233.849 16L239.474 6.3833H234.208L234.435 5.29199H240.96L240.763 6.31006L235.167 16H233.849ZM241.81 12.8945C241.81 11.874 241.957 10.8608 242.25 9.85498C242.547 8.84912 242.948 7.99219 243.451 7.28418C243.954 6.57129 244.554 6.03662 245.252 5.68018C245.951 5.31885 246.749 5.13818 247.647 5.13818C248.189 5.13818 248.639 5.19434 248.995 5.30664L248.739 6.36865C248.407 6.26123 247.992 6.20752 247.494 6.20752C246.458 6.20752 245.587 6.57129 244.879 7.29883C244.176 8.02637 243.658 9.10791 243.326 10.5435H243.385C243.673 10.1577 244.029 9.8501 244.454 9.62061C244.884 9.39111 245.357 9.27637 245.875 9.27637C246.627 9.27637 247.223 9.51807 247.662 10.0015C248.102 10.48 248.321 11.1392 248.321 11.979C248.321 12.7651 248.158 13.4854 247.831 14.1396C247.508 14.7891 247.069 15.2871 246.512 15.6338C245.956 15.9756 245.318 16.1465 244.601 16.1465C243.712 16.1465 243.023 15.8657 242.535 15.3042C242.052 14.7427 241.81 13.9395 241.81 12.8945ZM244.732 15.1138C245.191 15.1138 245.599 14.9819 245.956 14.7183C246.317 14.4546 246.595 14.0908 246.791 13.627C246.991 13.1631 247.091 12.6553 247.091 12.1035C247.091 10.8926 246.551 10.2871 245.472 10.2871C245.15 10.2871 244.837 10.3579 244.535 10.4995C244.232 10.6362 243.963 10.8218 243.729 11.0562C243.495 11.2856 243.319 11.5396 243.202 11.8179C243.084 12.0962 243.026 12.4746 243.026 12.9531C243.026 13.6221 243.172 14.1494 243.465 14.5352C243.763 14.9209 244.186 15.1138 244.732 15.1138ZM252.232 19.6035C251.896 19.6035 251.59 19.5522 251.317 19.4497V18.417C251.629 18.5244 251.903 18.5781 252.137 18.5781C252.508 18.5781 252.794 18.4268 252.994 18.124C253.194 17.8213 253.355 17.3892 253.478 16.8276L255.14 8.90283H253.727L253.822 8.41211L255.331 7.92871L255.499 7.19629C255.724 6.21973 256.034 5.53125 256.429 5.13086C256.83 4.72559 257.42 4.52295 258.202 4.52295C258.397 4.52295 258.636 4.55225 258.919 4.61084C259.203 4.66455 259.422 4.72559 259.579 4.79395L259.264 5.73877C258.893 5.59717 258.558 5.52637 258.26 5.52637C257.835 5.52637 257.508 5.646 257.279 5.88525C257.054 6.11963 256.871 6.55176 256.729 7.18164L256.546 7.97266H258.29L258.106 8.90283H256.371L254.671 16.9448C254.481 17.8677 254.188 18.5415 253.792 18.9663C253.397 19.3911 252.877 19.6035 252.232 19.6035ZM261.3 16.1465C260.401 16.1465 259.696 15.8804 259.183 15.3481C258.67 14.8159 258.414 14.0786 258.414 13.1362C258.414 12.2183 258.595 11.3394 258.956 10.4995C259.322 9.65479 259.806 8.99805 260.406 8.5293C261.007 8.06055 261.668 7.82617 262.391 7.82617C263.138 7.82617 263.7 7.98975 264.076 8.31689C264.452 8.63916 264.64 9.09082 264.64 9.67188C264.64 10.5508 264.234 11.2417 263.424 11.7446C262.613 12.2427 261.454 12.4917 259.945 12.4917H259.703L259.674 13.0776C259.674 13.7173 259.823 14.2178 260.121 14.5791C260.423 14.9355 260.89 15.1138 261.52 15.1138C261.827 15.1138 262.142 15.0698 262.464 14.9819C262.792 14.894 263.197 14.7329 263.68 14.4985V15.5679C263.221 15.7827 262.816 15.9316 262.464 16.0146C262.113 16.1025 261.725 16.1465 261.3 16.1465ZM262.318 8.87354C261.815 8.87354 261.341 9.10303 260.897 9.56201C260.458 10.021 260.121 10.6582 259.886 11.4736H259.974C261.087 11.4736 261.939 11.3296 262.53 11.0415C263.126 10.7485 263.424 10.3262 263.424 9.77441C263.424 9.51562 263.333 9.30078 263.153 9.12988C262.977 8.95898 262.699 8.87354 262.318 8.87354ZM268.697 16.1465C267.799 16.1465 267.093 15.8804 266.581 15.3481C266.068 14.8159 265.812 14.0786 265.812 13.1362C265.812 12.2183 265.992 11.3394 266.354 10.4995C266.72 9.65479 267.203 8.99805 267.804 8.5293C268.404 8.06055 269.066 7.82617 269.789 7.82617C270.536 7.82617 271.097 7.98975 271.473 8.31689C271.849 8.63916 272.037 9.09082 272.037 9.67188C272.037 10.5508 271.632 11.2417 270.821 11.7446C270.011 12.2427 268.851 12.4917 267.342 12.4917H267.101L267.071 13.0776C267.071 13.7173 267.22 14.2178 267.518 14.5791C267.821 14.9355 268.287 15.1138 268.917 15.1138C269.225 15.1138 269.54 15.0698 269.862 14.9819C270.189 14.894 270.594 14.7329 271.078 14.4985V15.5679C270.619 15.7827 270.213 15.9316 269.862 16.0146C269.51 16.1025 269.122 16.1465 268.697 16.1465ZM269.715 8.87354C269.212 8.87354 268.739 9.10303 268.294 9.56201C267.855 10.021 267.518 10.6582 267.284 11.4736H267.372C268.485 11.4736 269.337 11.3296 269.928 11.0415C270.523 10.7485 270.821 10.3262 270.821 9.77441C270.821 9.51562 270.731 9.30078 270.55 9.12988C270.375 8.95898 270.096 8.87354 269.715 8.87354ZM275.384 15.1431C275.653 15.1431 276.004 15.0796 276.439 14.9526V15.8975C276.273 15.9658 276.068 16.0244 275.824 16.0732C275.58 16.1221 275.384 16.1465 275.238 16.1465C274.627 16.1465 274.159 16.0024 273.832 15.7144C273.509 15.4214 273.348 14.9868 273.348 14.4106C273.348 14.0884 273.392 13.7222 273.48 13.312L274.41 8.90283H273.15L273.253 8.36816L274.608 7.79688L275.523 6.12695H276.241L275.838 7.97266H277.845L277.655 8.90283H275.655L274.71 13.3267C274.623 13.7515 274.579 14.0737 274.579 14.2935C274.579 14.5669 274.649 14.7769 274.791 14.9233C274.933 15.0698 275.13 15.1431 275.384 15.1431Z" fill="black"/>
<path d="M6.42857 8.5C6.42857 9.68025 5.46596 10.6429 4.28571 10.6429C3.10547 10.6429 2.14286 9.68025 2.14286 8.5C2.14286 7.31975 3.10547 6.35714 4.28571 6.35714C5.46596 6.35714 6.42857 7.31975 6.42857 8.5ZM8.57143 8.5C8.57143 6.13114 6.65458 4.21429 4.28571 4.21429C1.91685 4.21429 0 6.13114 0 8.5C0 9.0106 0.0585938 9.53795 0.276228 9.99833L3.33147 16.4771C3.49888 16.8454 3.88393 17.0714 4.28571 17.0714C4.6875 17.0714 5.07254 16.8454 5.24833 16.4771L8.2952 9.99833C8.51284 9.53795 8.57143 9.0106 8.57143 8.5Z" fill="#2C4058"/>
</svg>
