<!-- Generated by IcoMoon.io -->
<svg version="1.1" xmlns="http://www.w3.org/2000/svg" width="32" height="32" viewBox="0 0 32 32">
<title>twitter</title>
<path fill="#fff" d="M21.075 13.4c0.017 0.067 0.025 0.175 0.025 0.325 0 0.883-0.167 1.767-0.5 2.65-0.333 0.867-0.808 1.667-1.425 2.4-0.6 0.717-1.383 1.3-2.35 1.75s-2.033 0.675-3.2 0.675c-1.467 0-2.808-0.392-4.025-1.175 0.183 0.017 0.392 0.025 0.625 0.025 1.217 0 2.308-0.375 3.275-1.125-0.583 0-1.1-0.167-1.55-0.5-0.433-0.35-0.733-0.783-0.9-1.3 0.167 0.017 0.325 0.025 0.475 0.025 0.233 0 0.467-0.025 0.7-0.075-0.4-0.083-0.758-0.25-1.075-0.5s-0.567-0.55-0.75-0.9c-0.183-0.367-0.275-0.758-0.275-1.175v-0.050c0.367 0.217 0.758 0.333 1.175 0.35-0.783-0.533-1.175-1.267-1.175-2.2 0-0.467 0.125-0.908 0.375-1.325 0.65 0.817 1.442 1.467 2.375 1.95 0.95 0.483 1.958 0.75 3.025 0.8-0.033-0.2-0.050-0.4-0.050-0.6 0-0.717 0.25-1.333 0.75-1.85 0.517-0.517 1.133-0.775 1.85-0.775 0.767 0 1.408 0.275 1.925 0.825 0.6-0.117 1.158-0.325 1.675-0.625-0.2 0.617-0.583 1.1-1.15 1.45 0.5-0.067 1-0.208 1.5-0.425-0.367 0.533-0.808 0.992-1.325 1.375z"></path>
<path fill="none" opacity="0.4" stroke="#fff" stroke-linejoin="miter" stroke-linecap="butt" stroke-miterlimit="4" stroke-width="0.8" d="M31.6 16c0 8.616-6.984 15.6-15.6 15.6s-15.6-6.984-15.6-15.6c0-8.616 6.984-15.6 15.6-15.6s15.6 6.984 15.6 15.6z"></path>
</svg>
